%TF.GenerationSoftware,KiCad,Pcbnew,9.0.7*%
%TF.CreationDate,2026-02-18T23:20:48-03:00*%
%TF.ProjectId,OmegaKit_ESP_Embarcado_Simplificado,4f6d6567-614b-4697-945f-4553505f456d,rev?*%
%TF.SameCoordinates,Original*%
%TF.FileFunction,Drillmap*%
%TF.FilePolarity,Positive*%
%FSLAX45Y45*%
G04 Gerber Fmt 4.5, Leading zero omitted, Abs format (unit mm)*
G04 Created by KiCad (PCBNEW 9.0.7) date 2026-02-18 23:20:48*
%MOMM*%
%LPD*%
G01*
G04 APERTURE LIST*
%ADD10C,0.050000*%
%ADD11C,0.200000*%
%ADD12C,0.210000*%
G04 APERTURE END LIST*
D10*
X9700000Y-3850000D02*
X17350000Y-3850000D01*
X17350000Y-7500000D01*
X9700000Y-7500000D01*
X9700000Y-3850000D01*
D11*
D12*
X9895000Y-4045000D02*
X10105000Y-4255000D01*
X10105000Y-4045000D02*
X9895000Y-4255000D01*
X9895000Y-7095000D02*
X10105000Y-7305000D01*
X10105000Y-7095000D02*
X9895000Y-7305000D01*
X16945000Y-4045000D02*
X17155000Y-4255000D01*
X17155000Y-4045000D02*
X16945000Y-4255000D01*
X16945000Y-7095000D02*
X17155000Y-7305000D01*
X17155000Y-7095000D02*
X16945000Y-7305000D01*
D11*
X9958277Y-7813984D02*
X9958277Y-7613984D01*
X9958277Y-7613984D02*
X10005896Y-7613984D01*
X10005896Y-7613984D02*
X10034467Y-7623508D01*
X10034467Y-7623508D02*
X10053515Y-7642555D01*
X10053515Y-7642555D02*
X10063039Y-7661603D01*
X10063039Y-7661603D02*
X10072563Y-7699698D01*
X10072563Y-7699698D02*
X10072563Y-7728269D01*
X10072563Y-7728269D02*
X10063039Y-7766365D01*
X10063039Y-7766365D02*
X10053515Y-7785412D01*
X10053515Y-7785412D02*
X10034467Y-7804460D01*
X10034467Y-7804460D02*
X10005896Y-7813984D01*
X10005896Y-7813984D02*
X9958277Y-7813984D01*
X10158277Y-7813984D02*
X10158277Y-7680650D01*
X10158277Y-7718746D02*
X10167801Y-7699698D01*
X10167801Y-7699698D02*
X10177324Y-7690174D01*
X10177324Y-7690174D02*
X10196372Y-7680650D01*
X10196372Y-7680650D02*
X10215420Y-7680650D01*
X10282086Y-7813984D02*
X10282086Y-7680650D01*
X10282086Y-7613984D02*
X10272563Y-7623508D01*
X10272563Y-7623508D02*
X10282086Y-7633031D01*
X10282086Y-7633031D02*
X10291610Y-7623508D01*
X10291610Y-7623508D02*
X10282086Y-7613984D01*
X10282086Y-7613984D02*
X10282086Y-7633031D01*
X10405896Y-7813984D02*
X10386848Y-7804460D01*
X10386848Y-7804460D02*
X10377324Y-7785412D01*
X10377324Y-7785412D02*
X10377324Y-7613984D01*
X10510658Y-7813984D02*
X10491610Y-7804460D01*
X10491610Y-7804460D02*
X10482086Y-7785412D01*
X10482086Y-7785412D02*
X10482086Y-7613984D01*
X10739229Y-7813984D02*
X10739229Y-7613984D01*
X10739229Y-7613984D02*
X10805896Y-7756841D01*
X10805896Y-7756841D02*
X10872563Y-7613984D01*
X10872563Y-7613984D02*
X10872563Y-7813984D01*
X11053515Y-7813984D02*
X11053515Y-7709222D01*
X11053515Y-7709222D02*
X11043991Y-7690174D01*
X11043991Y-7690174D02*
X11024944Y-7680650D01*
X11024944Y-7680650D02*
X10986848Y-7680650D01*
X10986848Y-7680650D02*
X10967801Y-7690174D01*
X11053515Y-7804460D02*
X11034467Y-7813984D01*
X11034467Y-7813984D02*
X10986848Y-7813984D01*
X10986848Y-7813984D02*
X10967801Y-7804460D01*
X10967801Y-7804460D02*
X10958277Y-7785412D01*
X10958277Y-7785412D02*
X10958277Y-7766365D01*
X10958277Y-7766365D02*
X10967801Y-7747317D01*
X10967801Y-7747317D02*
X10986848Y-7737793D01*
X10986848Y-7737793D02*
X11034467Y-7737793D01*
X11034467Y-7737793D02*
X11053515Y-7728269D01*
X11148753Y-7680650D02*
X11148753Y-7880650D01*
X11148753Y-7690174D02*
X11167801Y-7680650D01*
X11167801Y-7680650D02*
X11205896Y-7680650D01*
X11205896Y-7680650D02*
X11224943Y-7690174D01*
X11224943Y-7690174D02*
X11234467Y-7699698D01*
X11234467Y-7699698D02*
X11243991Y-7718746D01*
X11243991Y-7718746D02*
X11243991Y-7775888D01*
X11243991Y-7775888D02*
X11234467Y-7794936D01*
X11234467Y-7794936D02*
X11224943Y-7804460D01*
X11224943Y-7804460D02*
X11205896Y-7813984D01*
X11205896Y-7813984D02*
X11167801Y-7813984D01*
X11167801Y-7813984D02*
X11148753Y-7804460D01*
X11329705Y-7794936D02*
X11339229Y-7804460D01*
X11339229Y-7804460D02*
X11329705Y-7813984D01*
X11329705Y-7813984D02*
X11320182Y-7804460D01*
X11320182Y-7804460D02*
X11329705Y-7794936D01*
X11329705Y-7794936D02*
X11329705Y-7813984D01*
X11329705Y-7690174D02*
X11339229Y-7699698D01*
X11339229Y-7699698D02*
X11329705Y-7709222D01*
X11329705Y-7709222D02*
X11320182Y-7699698D01*
X11320182Y-7699698D02*
X11329705Y-7690174D01*
X11329705Y-7690174D02*
X11329705Y-7709222D01*
X9497500Y-8042500D02*
X9697500Y-8242500D01*
X9697500Y-8042500D02*
X9497500Y-8242500D01*
X9948753Y-8053031D02*
X9958277Y-8043508D01*
X9958277Y-8043508D02*
X9977324Y-8033984D01*
X9977324Y-8033984D02*
X10024944Y-8033984D01*
X10024944Y-8033984D02*
X10043991Y-8043508D01*
X10043991Y-8043508D02*
X10053515Y-8053031D01*
X10053515Y-8053031D02*
X10063039Y-8072079D01*
X10063039Y-8072079D02*
X10063039Y-8091127D01*
X10063039Y-8091127D02*
X10053515Y-8119698D01*
X10053515Y-8119698D02*
X9939229Y-8233984D01*
X9939229Y-8233984D02*
X10063039Y-8233984D01*
X10148753Y-8214936D02*
X10158277Y-8224460D01*
X10158277Y-8224460D02*
X10148753Y-8233984D01*
X10148753Y-8233984D02*
X10139229Y-8224460D01*
X10139229Y-8224460D02*
X10148753Y-8214936D01*
X10148753Y-8214936D02*
X10148753Y-8233984D01*
X10348753Y-8233984D02*
X10234467Y-8233984D01*
X10291610Y-8233984D02*
X10291610Y-8033984D01*
X10291610Y-8033984D02*
X10272563Y-8062555D01*
X10272563Y-8062555D02*
X10253515Y-8081603D01*
X10253515Y-8081603D02*
X10234467Y-8091127D01*
X10472563Y-8033984D02*
X10491610Y-8033984D01*
X10491610Y-8033984D02*
X10510658Y-8043508D01*
X10510658Y-8043508D02*
X10520182Y-8053031D01*
X10520182Y-8053031D02*
X10529705Y-8072079D01*
X10529705Y-8072079D02*
X10539229Y-8110174D01*
X10539229Y-8110174D02*
X10539229Y-8157793D01*
X10539229Y-8157793D02*
X10529705Y-8195888D01*
X10529705Y-8195888D02*
X10520182Y-8214936D01*
X10520182Y-8214936D02*
X10510658Y-8224460D01*
X10510658Y-8224460D02*
X10491610Y-8233984D01*
X10491610Y-8233984D02*
X10472563Y-8233984D01*
X10472563Y-8233984D02*
X10453515Y-8224460D01*
X10453515Y-8224460D02*
X10443991Y-8214936D01*
X10443991Y-8214936D02*
X10434467Y-8195888D01*
X10434467Y-8195888D02*
X10424944Y-8157793D01*
X10424944Y-8157793D02*
X10424944Y-8110174D01*
X10424944Y-8110174D02*
X10434467Y-8072079D01*
X10434467Y-8072079D02*
X10443991Y-8053031D01*
X10443991Y-8053031D02*
X10453515Y-8043508D01*
X10453515Y-8043508D02*
X10472563Y-8033984D01*
X10663039Y-8033984D02*
X10682086Y-8033984D01*
X10682086Y-8033984D02*
X10701134Y-8043508D01*
X10701134Y-8043508D02*
X10710658Y-8053031D01*
X10710658Y-8053031D02*
X10720182Y-8072079D01*
X10720182Y-8072079D02*
X10729705Y-8110174D01*
X10729705Y-8110174D02*
X10729705Y-8157793D01*
X10729705Y-8157793D02*
X10720182Y-8195888D01*
X10720182Y-8195888D02*
X10710658Y-8214936D01*
X10710658Y-8214936D02*
X10701134Y-8224460D01*
X10701134Y-8224460D02*
X10682086Y-8233984D01*
X10682086Y-8233984D02*
X10663039Y-8233984D01*
X10663039Y-8233984D02*
X10643991Y-8224460D01*
X10643991Y-8224460D02*
X10634467Y-8214936D01*
X10634467Y-8214936D02*
X10624944Y-8195888D01*
X10624944Y-8195888D02*
X10615420Y-8157793D01*
X10615420Y-8157793D02*
X10615420Y-8110174D01*
X10615420Y-8110174D02*
X10624944Y-8072079D01*
X10624944Y-8072079D02*
X10634467Y-8053031D01*
X10634467Y-8053031D02*
X10643991Y-8043508D01*
X10643991Y-8043508D02*
X10663039Y-8033984D01*
X10815420Y-8233984D02*
X10815420Y-8100650D01*
X10815420Y-8119698D02*
X10824944Y-8110174D01*
X10824944Y-8110174D02*
X10843991Y-8100650D01*
X10843991Y-8100650D02*
X10872563Y-8100650D01*
X10872563Y-8100650D02*
X10891610Y-8110174D01*
X10891610Y-8110174D02*
X10901134Y-8129222D01*
X10901134Y-8129222D02*
X10901134Y-8233984D01*
X10901134Y-8129222D02*
X10910658Y-8110174D01*
X10910658Y-8110174D02*
X10929705Y-8100650D01*
X10929705Y-8100650D02*
X10958277Y-8100650D01*
X10958277Y-8100650D02*
X10977325Y-8110174D01*
X10977325Y-8110174D02*
X10986848Y-8129222D01*
X10986848Y-8129222D02*
X10986848Y-8233984D01*
X11082086Y-8233984D02*
X11082086Y-8100650D01*
X11082086Y-8119698D02*
X11091610Y-8110174D01*
X11091610Y-8110174D02*
X11110658Y-8100650D01*
X11110658Y-8100650D02*
X11139229Y-8100650D01*
X11139229Y-8100650D02*
X11158277Y-8110174D01*
X11158277Y-8110174D02*
X11167801Y-8129222D01*
X11167801Y-8129222D02*
X11167801Y-8233984D01*
X11167801Y-8129222D02*
X11177325Y-8110174D01*
X11177325Y-8110174D02*
X11196372Y-8100650D01*
X11196372Y-8100650D02*
X11224943Y-8100650D01*
X11224943Y-8100650D02*
X11243991Y-8110174D01*
X11243991Y-8110174D02*
X11253515Y-8129222D01*
X11253515Y-8129222D02*
X11253515Y-8233984D01*
X11643991Y-8024460D02*
X11472563Y-8281603D01*
X11901134Y-8033984D02*
X11920182Y-8033984D01*
X11920182Y-8033984D02*
X11939229Y-8043508D01*
X11939229Y-8043508D02*
X11948753Y-8053031D01*
X11948753Y-8053031D02*
X11958277Y-8072079D01*
X11958277Y-8072079D02*
X11967801Y-8110174D01*
X11967801Y-8110174D02*
X11967801Y-8157793D01*
X11967801Y-8157793D02*
X11958277Y-8195888D01*
X11958277Y-8195888D02*
X11948753Y-8214936D01*
X11948753Y-8214936D02*
X11939229Y-8224460D01*
X11939229Y-8224460D02*
X11920182Y-8233984D01*
X11920182Y-8233984D02*
X11901134Y-8233984D01*
X11901134Y-8233984D02*
X11882086Y-8224460D01*
X11882086Y-8224460D02*
X11872563Y-8214936D01*
X11872563Y-8214936D02*
X11863039Y-8195888D01*
X11863039Y-8195888D02*
X11853515Y-8157793D01*
X11853515Y-8157793D02*
X11853515Y-8110174D01*
X11853515Y-8110174D02*
X11863039Y-8072079D01*
X11863039Y-8072079D02*
X11872563Y-8053031D01*
X11872563Y-8053031D02*
X11882086Y-8043508D01*
X11882086Y-8043508D02*
X11901134Y-8033984D01*
X12053515Y-8214936D02*
X12063039Y-8224460D01*
X12063039Y-8224460D02*
X12053515Y-8233984D01*
X12053515Y-8233984D02*
X12043991Y-8224460D01*
X12043991Y-8224460D02*
X12053515Y-8214936D01*
X12053515Y-8214936D02*
X12053515Y-8233984D01*
X12186848Y-8033984D02*
X12205896Y-8033984D01*
X12205896Y-8033984D02*
X12224944Y-8043508D01*
X12224944Y-8043508D02*
X12234467Y-8053031D01*
X12234467Y-8053031D02*
X12243991Y-8072079D01*
X12243991Y-8072079D02*
X12253515Y-8110174D01*
X12253515Y-8110174D02*
X12253515Y-8157793D01*
X12253515Y-8157793D02*
X12243991Y-8195888D01*
X12243991Y-8195888D02*
X12234467Y-8214936D01*
X12234467Y-8214936D02*
X12224944Y-8224460D01*
X12224944Y-8224460D02*
X12205896Y-8233984D01*
X12205896Y-8233984D02*
X12186848Y-8233984D01*
X12186848Y-8233984D02*
X12167801Y-8224460D01*
X12167801Y-8224460D02*
X12158277Y-8214936D01*
X12158277Y-8214936D02*
X12148753Y-8195888D01*
X12148753Y-8195888D02*
X12139229Y-8157793D01*
X12139229Y-8157793D02*
X12139229Y-8110174D01*
X12139229Y-8110174D02*
X12148753Y-8072079D01*
X12148753Y-8072079D02*
X12158277Y-8053031D01*
X12158277Y-8053031D02*
X12167801Y-8043508D01*
X12167801Y-8043508D02*
X12186848Y-8033984D01*
X12367801Y-8119698D02*
X12348753Y-8110174D01*
X12348753Y-8110174D02*
X12339229Y-8100650D01*
X12339229Y-8100650D02*
X12329706Y-8081603D01*
X12329706Y-8081603D02*
X12329706Y-8072079D01*
X12329706Y-8072079D02*
X12339229Y-8053031D01*
X12339229Y-8053031D02*
X12348753Y-8043508D01*
X12348753Y-8043508D02*
X12367801Y-8033984D01*
X12367801Y-8033984D02*
X12405896Y-8033984D01*
X12405896Y-8033984D02*
X12424944Y-8043508D01*
X12424944Y-8043508D02*
X12434467Y-8053031D01*
X12434467Y-8053031D02*
X12443991Y-8072079D01*
X12443991Y-8072079D02*
X12443991Y-8081603D01*
X12443991Y-8081603D02*
X12434467Y-8100650D01*
X12434467Y-8100650D02*
X12424944Y-8110174D01*
X12424944Y-8110174D02*
X12405896Y-8119698D01*
X12405896Y-8119698D02*
X12367801Y-8119698D01*
X12367801Y-8119698D02*
X12348753Y-8129222D01*
X12348753Y-8129222D02*
X12339229Y-8138746D01*
X12339229Y-8138746D02*
X12329706Y-8157793D01*
X12329706Y-8157793D02*
X12329706Y-8195888D01*
X12329706Y-8195888D02*
X12339229Y-8214936D01*
X12339229Y-8214936D02*
X12348753Y-8224460D01*
X12348753Y-8224460D02*
X12367801Y-8233984D01*
X12367801Y-8233984D02*
X12405896Y-8233984D01*
X12405896Y-8233984D02*
X12424944Y-8224460D01*
X12424944Y-8224460D02*
X12434467Y-8214936D01*
X12434467Y-8214936D02*
X12443991Y-8195888D01*
X12443991Y-8195888D02*
X12443991Y-8157793D01*
X12443991Y-8157793D02*
X12434467Y-8138746D01*
X12434467Y-8138746D02*
X12424944Y-8129222D01*
X12424944Y-8129222D02*
X12405896Y-8119698D01*
X12520182Y-8053031D02*
X12529706Y-8043508D01*
X12529706Y-8043508D02*
X12548753Y-8033984D01*
X12548753Y-8033984D02*
X12596372Y-8033984D01*
X12596372Y-8033984D02*
X12615420Y-8043508D01*
X12615420Y-8043508D02*
X12624944Y-8053031D01*
X12624944Y-8053031D02*
X12634467Y-8072079D01*
X12634467Y-8072079D02*
X12634467Y-8091127D01*
X12634467Y-8091127D02*
X12624944Y-8119698D01*
X12624944Y-8119698D02*
X12510658Y-8233984D01*
X12510658Y-8233984D02*
X12634467Y-8233984D01*
X12701134Y-8033984D02*
X12834467Y-8033984D01*
X12834467Y-8033984D02*
X12748753Y-8233984D01*
X12901134Y-8033984D02*
X12901134Y-8072079D01*
X12977325Y-8033984D02*
X12977325Y-8072079D01*
X13272563Y-8310174D02*
X13263039Y-8300650D01*
X13263039Y-8300650D02*
X13243991Y-8272079D01*
X13243991Y-8272079D02*
X13234468Y-8253031D01*
X13234468Y-8253031D02*
X13224944Y-8224460D01*
X13224944Y-8224460D02*
X13215420Y-8176841D01*
X13215420Y-8176841D02*
X13215420Y-8138746D01*
X13215420Y-8138746D02*
X13224944Y-8091127D01*
X13224944Y-8091127D02*
X13234468Y-8062555D01*
X13234468Y-8062555D02*
X13243991Y-8043508D01*
X13243991Y-8043508D02*
X13263039Y-8014936D01*
X13263039Y-8014936D02*
X13272563Y-8005412D01*
X13434468Y-8100650D02*
X13434468Y-8233984D01*
X13386848Y-8024460D02*
X13339229Y-8167317D01*
X13339229Y-8167317D02*
X13463039Y-8167317D01*
X13691610Y-8233984D02*
X13691610Y-8033984D01*
X13777325Y-8233984D02*
X13777325Y-8129222D01*
X13777325Y-8129222D02*
X13767801Y-8110174D01*
X13767801Y-8110174D02*
X13748753Y-8100650D01*
X13748753Y-8100650D02*
X13720182Y-8100650D01*
X13720182Y-8100650D02*
X13701134Y-8110174D01*
X13701134Y-8110174D02*
X13691610Y-8119698D01*
X13901134Y-8233984D02*
X13882087Y-8224460D01*
X13882087Y-8224460D02*
X13872563Y-8214936D01*
X13872563Y-8214936D02*
X13863039Y-8195888D01*
X13863039Y-8195888D02*
X13863039Y-8138746D01*
X13863039Y-8138746D02*
X13872563Y-8119698D01*
X13872563Y-8119698D02*
X13882087Y-8110174D01*
X13882087Y-8110174D02*
X13901134Y-8100650D01*
X13901134Y-8100650D02*
X13929706Y-8100650D01*
X13929706Y-8100650D02*
X13948753Y-8110174D01*
X13948753Y-8110174D02*
X13958277Y-8119698D01*
X13958277Y-8119698D02*
X13967801Y-8138746D01*
X13967801Y-8138746D02*
X13967801Y-8195888D01*
X13967801Y-8195888D02*
X13958277Y-8214936D01*
X13958277Y-8214936D02*
X13948753Y-8224460D01*
X13948753Y-8224460D02*
X13929706Y-8233984D01*
X13929706Y-8233984D02*
X13901134Y-8233984D01*
X14082087Y-8233984D02*
X14063039Y-8224460D01*
X14063039Y-8224460D02*
X14053515Y-8205412D01*
X14053515Y-8205412D02*
X14053515Y-8033984D01*
X14234468Y-8224460D02*
X14215420Y-8233984D01*
X14215420Y-8233984D02*
X14177325Y-8233984D01*
X14177325Y-8233984D02*
X14158277Y-8224460D01*
X14158277Y-8224460D02*
X14148753Y-8205412D01*
X14148753Y-8205412D02*
X14148753Y-8129222D01*
X14148753Y-8129222D02*
X14158277Y-8110174D01*
X14158277Y-8110174D02*
X14177325Y-8100650D01*
X14177325Y-8100650D02*
X14215420Y-8100650D01*
X14215420Y-8100650D02*
X14234468Y-8110174D01*
X14234468Y-8110174D02*
X14243991Y-8129222D01*
X14243991Y-8129222D02*
X14243991Y-8148269D01*
X14243991Y-8148269D02*
X14148753Y-8167317D01*
X14320182Y-8224460D02*
X14339230Y-8233984D01*
X14339230Y-8233984D02*
X14377325Y-8233984D01*
X14377325Y-8233984D02*
X14396372Y-8224460D01*
X14396372Y-8224460D02*
X14405896Y-8205412D01*
X14405896Y-8205412D02*
X14405896Y-8195888D01*
X14405896Y-8195888D02*
X14396372Y-8176841D01*
X14396372Y-8176841D02*
X14377325Y-8167317D01*
X14377325Y-8167317D02*
X14348753Y-8167317D01*
X14348753Y-8167317D02*
X14329706Y-8157793D01*
X14329706Y-8157793D02*
X14320182Y-8138746D01*
X14320182Y-8138746D02*
X14320182Y-8129222D01*
X14320182Y-8129222D02*
X14329706Y-8110174D01*
X14329706Y-8110174D02*
X14348753Y-8100650D01*
X14348753Y-8100650D02*
X14377325Y-8100650D01*
X14377325Y-8100650D02*
X14396372Y-8110174D01*
X14472563Y-8310174D02*
X14482087Y-8300650D01*
X14482087Y-8300650D02*
X14501134Y-8272079D01*
X14501134Y-8272079D02*
X14510658Y-8253031D01*
X14510658Y-8253031D02*
X14520182Y-8224460D01*
X14520182Y-8224460D02*
X14529706Y-8176841D01*
X14529706Y-8176841D02*
X14529706Y-8138746D01*
X14529706Y-8138746D02*
X14520182Y-8091127D01*
X14520182Y-8091127D02*
X14510658Y-8062555D01*
X14510658Y-8062555D02*
X14501134Y-8043508D01*
X14501134Y-8043508D02*
X14482087Y-8014936D01*
X14482087Y-8014936D02*
X14472563Y-8005412D01*
X14834468Y-8310174D02*
X14824944Y-8300650D01*
X14824944Y-8300650D02*
X14805896Y-8272079D01*
X14805896Y-8272079D02*
X14796372Y-8253031D01*
X14796372Y-8253031D02*
X14786849Y-8224460D01*
X14786849Y-8224460D02*
X14777325Y-8176841D01*
X14777325Y-8176841D02*
X14777325Y-8138746D01*
X14777325Y-8138746D02*
X14786849Y-8091127D01*
X14786849Y-8091127D02*
X14796372Y-8062555D01*
X14796372Y-8062555D02*
X14805896Y-8043508D01*
X14805896Y-8043508D02*
X14824944Y-8014936D01*
X14824944Y-8014936D02*
X14834468Y-8005412D01*
X14910658Y-8100650D02*
X14910658Y-8233984D01*
X14910658Y-8119698D02*
X14920182Y-8110174D01*
X14920182Y-8110174D02*
X14939230Y-8100650D01*
X14939230Y-8100650D02*
X14967801Y-8100650D01*
X14967801Y-8100650D02*
X14986849Y-8110174D01*
X14986849Y-8110174D02*
X14996372Y-8129222D01*
X14996372Y-8129222D02*
X14996372Y-8233984D01*
X15120182Y-8233984D02*
X15101134Y-8224460D01*
X15101134Y-8224460D02*
X15091611Y-8214936D01*
X15091611Y-8214936D02*
X15082087Y-8195888D01*
X15082087Y-8195888D02*
X15082087Y-8138746D01*
X15082087Y-8138746D02*
X15091611Y-8119698D01*
X15091611Y-8119698D02*
X15101134Y-8110174D01*
X15101134Y-8110174D02*
X15120182Y-8100650D01*
X15120182Y-8100650D02*
X15148753Y-8100650D01*
X15148753Y-8100650D02*
X15167801Y-8110174D01*
X15167801Y-8110174D02*
X15177325Y-8119698D01*
X15177325Y-8119698D02*
X15186849Y-8138746D01*
X15186849Y-8138746D02*
X15186849Y-8195888D01*
X15186849Y-8195888D02*
X15177325Y-8214936D01*
X15177325Y-8214936D02*
X15167801Y-8224460D01*
X15167801Y-8224460D02*
X15148753Y-8233984D01*
X15148753Y-8233984D02*
X15120182Y-8233984D01*
X15243992Y-8100650D02*
X15320182Y-8100650D01*
X15272563Y-8033984D02*
X15272563Y-8205412D01*
X15272563Y-8205412D02*
X15282087Y-8224460D01*
X15282087Y-8224460D02*
X15301134Y-8233984D01*
X15301134Y-8233984D02*
X15320182Y-8233984D01*
X15539230Y-8100650D02*
X15539230Y-8300650D01*
X15539230Y-8110174D02*
X15558277Y-8100650D01*
X15558277Y-8100650D02*
X15596373Y-8100650D01*
X15596373Y-8100650D02*
X15615420Y-8110174D01*
X15615420Y-8110174D02*
X15624944Y-8119698D01*
X15624944Y-8119698D02*
X15634468Y-8138746D01*
X15634468Y-8138746D02*
X15634468Y-8195888D01*
X15634468Y-8195888D02*
X15624944Y-8214936D01*
X15624944Y-8214936D02*
X15615420Y-8224460D01*
X15615420Y-8224460D02*
X15596373Y-8233984D01*
X15596373Y-8233984D02*
X15558277Y-8233984D01*
X15558277Y-8233984D02*
X15539230Y-8224460D01*
X15748753Y-8233984D02*
X15729706Y-8224460D01*
X15729706Y-8224460D02*
X15720182Y-8205412D01*
X15720182Y-8205412D02*
X15720182Y-8033984D01*
X15910658Y-8233984D02*
X15910658Y-8129222D01*
X15910658Y-8129222D02*
X15901134Y-8110174D01*
X15901134Y-8110174D02*
X15882087Y-8100650D01*
X15882087Y-8100650D02*
X15843992Y-8100650D01*
X15843992Y-8100650D02*
X15824944Y-8110174D01*
X15910658Y-8224460D02*
X15891611Y-8233984D01*
X15891611Y-8233984D02*
X15843992Y-8233984D01*
X15843992Y-8233984D02*
X15824944Y-8224460D01*
X15824944Y-8224460D02*
X15815420Y-8205412D01*
X15815420Y-8205412D02*
X15815420Y-8186365D01*
X15815420Y-8186365D02*
X15824944Y-8167317D01*
X15824944Y-8167317D02*
X15843992Y-8157793D01*
X15843992Y-8157793D02*
X15891611Y-8157793D01*
X15891611Y-8157793D02*
X15910658Y-8148269D01*
X15977325Y-8100650D02*
X16053515Y-8100650D01*
X16005896Y-8033984D02*
X16005896Y-8205412D01*
X16005896Y-8205412D02*
X16015420Y-8224460D01*
X16015420Y-8224460D02*
X16034468Y-8233984D01*
X16034468Y-8233984D02*
X16053515Y-8233984D01*
X16196373Y-8224460D02*
X16177325Y-8233984D01*
X16177325Y-8233984D02*
X16139230Y-8233984D01*
X16139230Y-8233984D02*
X16120182Y-8224460D01*
X16120182Y-8224460D02*
X16110658Y-8205412D01*
X16110658Y-8205412D02*
X16110658Y-8129222D01*
X16110658Y-8129222D02*
X16120182Y-8110174D01*
X16120182Y-8110174D02*
X16139230Y-8100650D01*
X16139230Y-8100650D02*
X16177325Y-8100650D01*
X16177325Y-8100650D02*
X16196373Y-8110174D01*
X16196373Y-8110174D02*
X16205896Y-8129222D01*
X16205896Y-8129222D02*
X16205896Y-8148269D01*
X16205896Y-8148269D02*
X16110658Y-8167317D01*
X16377325Y-8233984D02*
X16377325Y-8033984D01*
X16377325Y-8224460D02*
X16358277Y-8233984D01*
X16358277Y-8233984D02*
X16320182Y-8233984D01*
X16320182Y-8233984D02*
X16301134Y-8224460D01*
X16301134Y-8224460D02*
X16291611Y-8214936D01*
X16291611Y-8214936D02*
X16282087Y-8195888D01*
X16282087Y-8195888D02*
X16282087Y-8138746D01*
X16282087Y-8138746D02*
X16291611Y-8119698D01*
X16291611Y-8119698D02*
X16301134Y-8110174D01*
X16301134Y-8110174D02*
X16320182Y-8100650D01*
X16320182Y-8100650D02*
X16358277Y-8100650D01*
X16358277Y-8100650D02*
X16377325Y-8110174D01*
X16453515Y-8310174D02*
X16463039Y-8300650D01*
X16463039Y-8300650D02*
X16482087Y-8272079D01*
X16482087Y-8272079D02*
X16491611Y-8253031D01*
X16491611Y-8253031D02*
X16501134Y-8224460D01*
X16501134Y-8224460D02*
X16510658Y-8176841D01*
X16510658Y-8176841D02*
X16510658Y-8138746D01*
X16510658Y-8138746D02*
X16501134Y-8091127D01*
X16501134Y-8091127D02*
X16491611Y-8062555D01*
X16491611Y-8062555D02*
X16482087Y-8043508D01*
X16482087Y-8043508D02*
X16463039Y-8014936D01*
X16463039Y-8014936D02*
X16453515Y-8005412D01*
M02*
