%TF.GenerationSoftware,KiCad,Pcbnew,9.0.7*%
%TF.CreationDate,2026-02-18T23:20:48-03:00*%
%TF.ProjectId,OmegaKit_ESP_Embarcado_Simplificado,4f6d6567-614b-4697-945f-4553505f456d,rev?*%
%TF.SameCoordinates,Original*%
%TF.FileFunction,Drillmap*%
%TF.FilePolarity,Positive*%
%FSLAX45Y45*%
G04 Gerber Fmt 4.5, Leading zero omitted, Abs format (unit mm)*
G04 Created by KiCad (PCBNEW 9.0.7) date 2026-02-18 23:20:48*
%MOMM*%
%LPD*%
G01*
G04 APERTURE LIST*
%ADD10C,0.050000*%
%ADD11C,0.200000*%
%ADD12C,0.100000*%
%ADD13C,0.154940*%
G04 APERTURE END LIST*
D10*
X9700000Y-3850000D02*
X17350000Y-3850000D01*
X17350000Y-7500000D01*
X9700000Y-7500000D01*
X9700000Y-3850000D01*
D11*
D12*
X15563750Y-5411250D02*
X15583750Y-5431250D01*
X15583750Y-5411250D02*
X15563750Y-5431250D01*
X15563750Y-5563750D02*
X15583750Y-5583750D01*
X15583750Y-5563750D02*
X15563750Y-5583750D01*
X15640000Y-5335000D02*
X15660000Y-5355000D01*
X15660000Y-5335000D02*
X15640000Y-5355000D01*
X15640000Y-5487500D02*
X15660000Y-5507500D01*
X15660000Y-5487500D02*
X15640000Y-5507500D01*
X15640000Y-5640000D02*
X15660000Y-5660000D01*
X15660000Y-5640000D02*
X15640000Y-5660000D01*
X15716250Y-5411250D02*
X15736250Y-5431250D01*
X15736250Y-5411250D02*
X15716250Y-5431250D01*
X15716250Y-5563750D02*
X15736250Y-5583750D01*
X15736250Y-5563750D02*
X15716250Y-5583750D01*
X15792500Y-5335000D02*
X15812500Y-5355000D01*
X15812500Y-5335000D02*
X15792500Y-5355000D01*
X15792500Y-5487500D02*
X15812500Y-5507500D01*
X15812500Y-5487500D02*
X15792500Y-5507500D01*
X15792500Y-5640000D02*
X15812500Y-5660000D01*
X15812500Y-5640000D02*
X15792500Y-5660000D01*
X15868750Y-5411250D02*
X15888750Y-5431250D01*
X15888750Y-5411250D02*
X15868750Y-5431250D01*
X15868750Y-5563750D02*
X15888750Y-5583750D01*
X15888750Y-5563750D02*
X15868750Y-5583750D01*
X10115000Y-6000000D02*
G75*
G02*
X10085000Y-6000000I-15000J0D01*
G01*
X10085000Y-6000000D02*
G75*
G02*
X10115000Y-6000000I15000J0D01*
G01*
X10515000Y-5600000D02*
G75*
G02*
X10485000Y-5600000I-15000J0D01*
G01*
X10485000Y-5600000D02*
G75*
G02*
X10515000Y-5600000I15000J0D01*
G01*
X10665000Y-5600000D02*
G75*
G02*
X10635000Y-5600000I-15000J0D01*
G01*
X10635000Y-5600000D02*
G75*
G02*
X10665000Y-5600000I15000J0D01*
G01*
X10865000Y-4650000D02*
G75*
G02*
X10835000Y-4650000I-15000J0D01*
G01*
X10835000Y-4650000D02*
G75*
G02*
X10865000Y-4650000I15000J0D01*
G01*
X11165000Y-5900000D02*
G75*
G02*
X11135000Y-5900000I-15000J0D01*
G01*
X11135000Y-5900000D02*
G75*
G02*
X11165000Y-5900000I15000J0D01*
G01*
X11265000Y-4450000D02*
G75*
G02*
X11235000Y-4450000I-15000J0D01*
G01*
X11235000Y-4450000D02*
G75*
G02*
X11265000Y-4450000I15000J0D01*
G01*
X11511612Y-5770163D02*
G75*
G02*
X11481612Y-5770163I-15000J0D01*
G01*
X11481612Y-5770163D02*
G75*
G02*
X11511612Y-5770163I15000J0D01*
G01*
X11513803Y-5991355D02*
G75*
G02*
X11483803Y-5991355I-15000J0D01*
G01*
X11483803Y-5991355D02*
G75*
G02*
X11513803Y-5991355I15000J0D01*
G01*
X11514686Y-5610290D02*
G75*
G02*
X11484686Y-5610290I-15000J0D01*
G01*
X11484686Y-5610290D02*
G75*
G02*
X11514686Y-5610290I15000J0D01*
G01*
X11515000Y-6150000D02*
G75*
G02*
X11485000Y-6150000I-15000J0D01*
G01*
X11485000Y-6150000D02*
G75*
G02*
X11515000Y-6150000I15000J0D01*
G01*
X11515943Y-5690280D02*
G75*
G02*
X11485943Y-5690280I-15000J0D01*
G01*
X11485943Y-5690280D02*
G75*
G02*
X11515943Y-5690280I15000J0D01*
G01*
X11524774Y-6070599D02*
G75*
G02*
X11494774Y-6070599I-15000J0D01*
G01*
X11494774Y-6070599D02*
G75*
G02*
X11524774Y-6070599I15000J0D01*
G01*
X11765000Y-4800000D02*
G75*
G02*
X11735000Y-4800000I-15000J0D01*
G01*
X11735000Y-4800000D02*
G75*
G02*
X11765000Y-4800000I15000J0D01*
G01*
X12065000Y-4500000D02*
G75*
G02*
X12035000Y-4500000I-15000J0D01*
G01*
X12035000Y-4500000D02*
G75*
G02*
X12065000Y-4500000I15000J0D01*
G01*
X12615000Y-4800000D02*
G75*
G02*
X12585000Y-4800000I-15000J0D01*
G01*
X12585000Y-4800000D02*
G75*
G02*
X12615000Y-4800000I15000J0D01*
G01*
X13065000Y-4410000D02*
G75*
G02*
X13035000Y-4410000I-15000J0D01*
G01*
X13035000Y-4410000D02*
G75*
G02*
X13065000Y-4410000I15000J0D01*
G01*
X13101250Y-5913750D02*
G75*
G02*
X13071250Y-5913750I-15000J0D01*
G01*
X13071250Y-5913750D02*
G75*
G02*
X13101250Y-5913750I15000J0D01*
G01*
X13415000Y-6760000D02*
G75*
G02*
X13385000Y-6760000I-15000J0D01*
G01*
X13385000Y-6760000D02*
G75*
G02*
X13415000Y-6760000I15000J0D01*
G01*
X13565000Y-6760000D02*
G75*
G02*
X13535000Y-6760000I-15000J0D01*
G01*
X13535000Y-6760000D02*
G75*
G02*
X13565000Y-6760000I15000J0D01*
G01*
X13615000Y-4450000D02*
G75*
G02*
X13585000Y-4450000I-15000J0D01*
G01*
X13585000Y-4450000D02*
G75*
G02*
X13615000Y-4450000I15000J0D01*
G01*
X13615000Y-5667000D02*
G75*
G02*
X13585000Y-5667000I-15000J0D01*
G01*
X13585000Y-5667000D02*
G75*
G02*
X13615000Y-5667000I15000J0D01*
G01*
X13715000Y-6760000D02*
G75*
G02*
X13685000Y-6760000I-15000J0D01*
G01*
X13685000Y-6760000D02*
G75*
G02*
X13715000Y-6760000I15000J0D01*
G01*
X13870900Y-6760000D02*
G75*
G02*
X13840900Y-6760000I-15000J0D01*
G01*
X13840900Y-6760000D02*
G75*
G02*
X13870900Y-6760000I15000J0D01*
G01*
X14015000Y-4410000D02*
G75*
G02*
X13985000Y-4410000I-15000J0D01*
G01*
X13985000Y-4410000D02*
G75*
G02*
X14015000Y-4410000I15000J0D01*
G01*
X14065000Y-6760000D02*
G75*
G02*
X14035000Y-6760000I-15000J0D01*
G01*
X14035000Y-6760000D02*
G75*
G02*
X14065000Y-6760000I15000J0D01*
G01*
X14115000Y-6950000D02*
G75*
G02*
X14085000Y-6950000I-15000J0D01*
G01*
X14085000Y-6950000D02*
G75*
G02*
X14115000Y-6950000I15000J0D01*
G01*
X14365000Y-4450000D02*
G75*
G02*
X14335000Y-4450000I-15000J0D01*
G01*
X14335000Y-4450000D02*
G75*
G02*
X14365000Y-4450000I15000J0D01*
G01*
X15015000Y-4950000D02*
G75*
G02*
X14985000Y-4950000I-15000J0D01*
G01*
X14985000Y-4950000D02*
G75*
G02*
X15015000Y-4950000I15000J0D01*
G01*
X15115000Y-5900000D02*
G75*
G02*
X15085000Y-5900000I-15000J0D01*
G01*
X15085000Y-5900000D02*
G75*
G02*
X15115000Y-5900000I15000J0D01*
G01*
X15165000Y-4950000D02*
G75*
G02*
X15135000Y-4950000I-15000J0D01*
G01*
X15135000Y-4950000D02*
G75*
G02*
X15165000Y-4950000I15000J0D01*
G01*
X15315000Y-4950000D02*
G75*
G02*
X15285000Y-4950000I-15000J0D01*
G01*
X15285000Y-4950000D02*
G75*
G02*
X15315000Y-4950000I15000J0D01*
G01*
X15415000Y-4500000D02*
G75*
G02*
X15385000Y-4500000I-15000J0D01*
G01*
X15385000Y-4500000D02*
G75*
G02*
X15415000Y-4500000I15000J0D01*
G01*
X15415000Y-6210000D02*
G75*
G02*
X15385000Y-6210000I-15000J0D01*
G01*
X15385000Y-6210000D02*
G75*
G02*
X15415000Y-6210000I15000J0D01*
G01*
X15465000Y-6600000D02*
G75*
G02*
X15435000Y-6600000I-15000J0D01*
G01*
X15435000Y-6600000D02*
G75*
G02*
X15465000Y-6600000I15000J0D01*
G01*
X15565000Y-4500000D02*
G75*
G02*
X15535000Y-4500000I-15000J0D01*
G01*
X15535000Y-4500000D02*
G75*
G02*
X15565000Y-4500000I15000J0D01*
G01*
X15665000Y-5050000D02*
G75*
G02*
X15635000Y-5050000I-15000J0D01*
G01*
X15635000Y-5050000D02*
G75*
G02*
X15665000Y-5050000I15000J0D01*
G01*
X15815000Y-5900000D02*
G75*
G02*
X15785000Y-5900000I-15000J0D01*
G01*
X15785000Y-5900000D02*
G75*
G02*
X15815000Y-5900000I15000J0D01*
G01*
X15815000Y-6300000D02*
G75*
G02*
X15785000Y-6300000I-15000J0D01*
G01*
X15785000Y-6300000D02*
G75*
G02*
X15815000Y-6300000I15000J0D01*
G01*
X15965000Y-5950000D02*
G75*
G02*
X15935000Y-5950000I-15000J0D01*
G01*
X15935000Y-5950000D02*
G75*
G02*
X15965000Y-5950000I15000J0D01*
G01*
X16165000Y-6200000D02*
G75*
G02*
X16135000Y-6200000I-15000J0D01*
G01*
X16135000Y-6200000D02*
G75*
G02*
X16165000Y-6200000I15000J0D01*
G01*
X16315000Y-4550000D02*
G75*
G02*
X16285000Y-4550000I-15000J0D01*
G01*
X16285000Y-4550000D02*
G75*
G02*
X16315000Y-4550000I15000J0D01*
G01*
X16315000Y-5950000D02*
G75*
G02*
X16285000Y-5950000I-15000J0D01*
G01*
X16285000Y-5950000D02*
G75*
G02*
X16315000Y-5950000I15000J0D01*
G01*
X11750000Y-6175000D02*
X11750000Y-6225000D01*
X11725000Y-6200000D02*
X11775000Y-6200000D01*
X12250000Y-6525000D02*
X12250000Y-6575000D01*
X12225000Y-6550000D02*
X12275000Y-6550000D01*
X10527356Y-4135356D02*
X10527356Y-4064644D01*
X10456644Y-4064644D01*
X10456644Y-4135356D01*
X10527356Y-4135356D01*
X10781356Y-4135356D02*
X10781356Y-4064644D01*
X10710644Y-4064644D01*
X10710644Y-4135356D01*
X10781356Y-4135356D01*
X11035356Y-4135356D02*
X11035356Y-4064644D01*
X10964644Y-4064644D01*
X10964644Y-4135356D01*
X11035356Y-4135356D01*
X11427356Y-4135356D02*
X11427356Y-4064644D01*
X11356644Y-4064644D01*
X11356644Y-4135356D01*
X11427356Y-4135356D01*
X11681356Y-4135356D02*
X11681356Y-4064644D01*
X11610644Y-4064644D01*
X11610644Y-4135356D01*
X11681356Y-4135356D01*
X11931356Y-7185356D02*
X11931356Y-7114644D01*
X11860644Y-7114644D01*
X11860644Y-7185356D01*
X11931356Y-7185356D01*
X11935356Y-4135356D02*
X11935356Y-4064644D01*
X11864644Y-4064644D01*
X11864644Y-4135356D01*
X11935356Y-4135356D01*
X12185356Y-7185356D02*
X12185356Y-7114644D01*
X12114644Y-7114644D01*
X12114644Y-7185356D01*
X12185356Y-7185356D01*
X12327356Y-4135356D02*
X12327356Y-4064644D01*
X12256644Y-4064644D01*
X12256644Y-4135356D01*
X12327356Y-4135356D01*
X12554856Y-7185356D02*
X12554856Y-7114644D01*
X12484144Y-7114644D01*
X12484144Y-7185356D01*
X12554856Y-7185356D01*
X12581356Y-4135356D02*
X12581356Y-4064644D01*
X12510644Y-4064644D01*
X12510644Y-4135356D01*
X12581356Y-4135356D01*
X12808856Y-7185356D02*
X12808856Y-7114644D01*
X12738144Y-7114644D01*
X12738144Y-7185356D01*
X12808856Y-7185356D01*
X12835356Y-4135356D02*
X12835356Y-4064644D01*
X12764644Y-4064644D01*
X12764644Y-4135356D01*
X12835356Y-4135356D01*
X13181356Y-7185356D02*
X13181356Y-7114644D01*
X13110644Y-7114644D01*
X13110644Y-7185356D01*
X13181356Y-7185356D01*
X13227356Y-4135356D02*
X13227356Y-4064644D01*
X13156644Y-4064644D01*
X13156644Y-4135356D01*
X13227356Y-4135356D01*
X13435356Y-5000356D02*
X13435356Y-4929644D01*
X13364644Y-4929644D01*
X13364644Y-5000356D01*
X13435356Y-5000356D01*
X13435356Y-5254356D02*
X13435356Y-5183644D01*
X13364644Y-5183644D01*
X13364644Y-5254356D01*
X13435356Y-5254356D01*
X13435356Y-5508356D02*
X13435356Y-5437644D01*
X13364644Y-5437644D01*
X13364644Y-5508356D01*
X13435356Y-5508356D01*
X13435356Y-5762356D02*
X13435356Y-5691644D01*
X13364644Y-5691644D01*
X13364644Y-5762356D01*
X13435356Y-5762356D01*
X13435356Y-6016356D02*
X13435356Y-5945644D01*
X13364644Y-5945644D01*
X13364644Y-6016356D01*
X13435356Y-6016356D01*
X13435356Y-6270356D02*
X13435356Y-6199644D01*
X13364644Y-6199644D01*
X13364644Y-6270356D01*
X13435356Y-6270356D01*
X13435356Y-7185356D02*
X13435356Y-7114644D01*
X13364644Y-7114644D01*
X13364644Y-7185356D01*
X13435356Y-7185356D01*
X13481356Y-4135356D02*
X13481356Y-4064644D01*
X13410644Y-4064644D01*
X13410644Y-4135356D01*
X13481356Y-4135356D01*
X13735356Y-4135356D02*
X13735356Y-4064644D01*
X13664644Y-4064644D01*
X13664644Y-4135356D01*
X13735356Y-4135356D01*
X13931356Y-7186197D02*
X13931356Y-7115485D01*
X13860644Y-7115485D01*
X13860644Y-7186197D01*
X13931356Y-7186197D01*
X14127356Y-4135356D02*
X14127356Y-4064644D01*
X14056644Y-4064644D01*
X14056644Y-4135356D01*
X14127356Y-4135356D01*
X14185356Y-7186197D02*
X14185356Y-7115485D01*
X14114644Y-7115485D01*
X14114644Y-7186197D01*
X14185356Y-7186197D01*
X14381356Y-4135356D02*
X14381356Y-4064644D01*
X14310644Y-4064644D01*
X14310644Y-4135356D01*
X14381356Y-4135356D01*
X14439356Y-7186197D02*
X14439356Y-7115485D01*
X14368644Y-7115485D01*
X14368644Y-7186197D01*
X14439356Y-7186197D01*
X14635356Y-4135356D02*
X14635356Y-4064644D01*
X14564644Y-4064644D01*
X14564644Y-4135356D01*
X14635356Y-4135356D01*
X14931356Y-7185356D02*
X14931356Y-7114644D01*
X14860644Y-7114644D01*
X14860644Y-7185356D01*
X14931356Y-7185356D01*
X15027356Y-4135356D02*
X15027356Y-4064644D01*
X14956644Y-4064644D01*
X14956644Y-4135356D01*
X15027356Y-4135356D01*
X15185356Y-7185356D02*
X15185356Y-7114644D01*
X15114644Y-7114644D01*
X15114644Y-7185356D01*
X15185356Y-7185356D01*
X15281356Y-4135356D02*
X15281356Y-4064644D01*
X15210644Y-4064644D01*
X15210644Y-4135356D01*
X15281356Y-4135356D01*
X15439356Y-7185356D02*
X15439356Y-7114644D01*
X15368644Y-7114644D01*
X15368644Y-7185356D01*
X15439356Y-7185356D01*
X15535356Y-4135356D02*
X15535356Y-4064644D01*
X15464644Y-4064644D01*
X15464644Y-4135356D01*
X15535356Y-4135356D01*
X15927356Y-4135356D02*
X15927356Y-4064644D01*
X15856644Y-4064644D01*
X15856644Y-4135356D01*
X15927356Y-4135356D01*
X15927356Y-7185356D02*
X15927356Y-7114644D01*
X15856644Y-7114644D01*
X15856644Y-7185356D01*
X15927356Y-7185356D01*
X16181356Y-4135356D02*
X16181356Y-4064644D01*
X16110644Y-4064644D01*
X16110644Y-4135356D01*
X16181356Y-4135356D01*
X16181356Y-7185356D02*
X16181356Y-7114644D01*
X16110644Y-7114644D01*
X16110644Y-7185356D01*
X16181356Y-7185356D01*
X16435356Y-4135356D02*
X16435356Y-4064644D01*
X16364644Y-4064644D01*
X16364644Y-4135356D01*
X16435356Y-4135356D01*
X16435356Y-7185356D02*
X16435356Y-7114644D01*
X16364644Y-7114644D01*
X16364644Y-7185356D01*
X16435356Y-7185356D01*
D13*
X10510200Y-7177470D02*
X10587670Y-7100000D01*
X10510200Y-7022530D01*
X10432730Y-7100000D01*
X10510200Y-7177470D01*
X10980100Y-7177470D02*
X11057570Y-7100000D01*
X10980100Y-7022530D01*
X10902630Y-7100000D01*
X10980100Y-7177470D01*
X11450000Y-7177470D02*
X11527470Y-7100000D01*
X11450000Y-7022530D01*
X11372530Y-7100000D01*
X11450000Y-7177470D01*
D11*
X9958277Y-7813984D02*
X9958277Y-7613984D01*
X9958277Y-7613984D02*
X10005896Y-7613984D01*
X10005896Y-7613984D02*
X10034467Y-7623508D01*
X10034467Y-7623508D02*
X10053515Y-7642555D01*
X10053515Y-7642555D02*
X10063039Y-7661603D01*
X10063039Y-7661603D02*
X10072563Y-7699698D01*
X10072563Y-7699698D02*
X10072563Y-7728269D01*
X10072563Y-7728269D02*
X10063039Y-7766365D01*
X10063039Y-7766365D02*
X10053515Y-7785412D01*
X10053515Y-7785412D02*
X10034467Y-7804460D01*
X10034467Y-7804460D02*
X10005896Y-7813984D01*
X10005896Y-7813984D02*
X9958277Y-7813984D01*
X10158277Y-7813984D02*
X10158277Y-7680650D01*
X10158277Y-7718746D02*
X10167801Y-7699698D01*
X10167801Y-7699698D02*
X10177324Y-7690174D01*
X10177324Y-7690174D02*
X10196372Y-7680650D01*
X10196372Y-7680650D02*
X10215420Y-7680650D01*
X10282086Y-7813984D02*
X10282086Y-7680650D01*
X10282086Y-7613984D02*
X10272563Y-7623508D01*
X10272563Y-7623508D02*
X10282086Y-7633031D01*
X10282086Y-7633031D02*
X10291610Y-7623508D01*
X10291610Y-7623508D02*
X10282086Y-7613984D01*
X10282086Y-7613984D02*
X10282086Y-7633031D01*
X10405896Y-7813984D02*
X10386848Y-7804460D01*
X10386848Y-7804460D02*
X10377324Y-7785412D01*
X10377324Y-7785412D02*
X10377324Y-7613984D01*
X10510658Y-7813984D02*
X10491610Y-7804460D01*
X10491610Y-7804460D02*
X10482086Y-7785412D01*
X10482086Y-7785412D02*
X10482086Y-7613984D01*
X10739229Y-7813984D02*
X10739229Y-7613984D01*
X10739229Y-7613984D02*
X10805896Y-7756841D01*
X10805896Y-7756841D02*
X10872563Y-7613984D01*
X10872563Y-7613984D02*
X10872563Y-7813984D01*
X11053515Y-7813984D02*
X11053515Y-7709222D01*
X11053515Y-7709222D02*
X11043991Y-7690174D01*
X11043991Y-7690174D02*
X11024944Y-7680650D01*
X11024944Y-7680650D02*
X10986848Y-7680650D01*
X10986848Y-7680650D02*
X10967801Y-7690174D01*
X11053515Y-7804460D02*
X11034467Y-7813984D01*
X11034467Y-7813984D02*
X10986848Y-7813984D01*
X10986848Y-7813984D02*
X10967801Y-7804460D01*
X10967801Y-7804460D02*
X10958277Y-7785412D01*
X10958277Y-7785412D02*
X10958277Y-7766365D01*
X10958277Y-7766365D02*
X10967801Y-7747317D01*
X10967801Y-7747317D02*
X10986848Y-7737793D01*
X10986848Y-7737793D02*
X11034467Y-7737793D01*
X11034467Y-7737793D02*
X11053515Y-7728269D01*
X11148753Y-7680650D02*
X11148753Y-7880650D01*
X11148753Y-7690174D02*
X11167801Y-7680650D01*
X11167801Y-7680650D02*
X11205896Y-7680650D01*
X11205896Y-7680650D02*
X11224943Y-7690174D01*
X11224943Y-7690174D02*
X11234467Y-7699698D01*
X11234467Y-7699698D02*
X11243991Y-7718746D01*
X11243991Y-7718746D02*
X11243991Y-7775888D01*
X11243991Y-7775888D02*
X11234467Y-7794936D01*
X11234467Y-7794936D02*
X11224943Y-7804460D01*
X11224943Y-7804460D02*
X11205896Y-7813984D01*
X11205896Y-7813984D02*
X11167801Y-7813984D01*
X11167801Y-7813984D02*
X11148753Y-7804460D01*
X11329705Y-7794936D02*
X11339229Y-7804460D01*
X11339229Y-7804460D02*
X11329705Y-7813984D01*
X11329705Y-7813984D02*
X11320182Y-7804460D01*
X11320182Y-7804460D02*
X11329705Y-7794936D01*
X11329705Y-7794936D02*
X11329705Y-7813984D01*
X11329705Y-7690174D02*
X11339229Y-7699698D01*
X11339229Y-7699698D02*
X11329705Y-7709222D01*
X11329705Y-7709222D02*
X11320182Y-7699698D01*
X11320182Y-7699698D02*
X11329705Y-7690174D01*
X11329705Y-7690174D02*
X11329705Y-7709222D01*
D12*
X9677500Y-8132500D02*
X9697500Y-8152500D01*
X9697500Y-8132500D02*
X9677500Y-8152500D01*
D11*
X9996372Y-8033984D02*
X10015420Y-8033984D01*
X10015420Y-8033984D02*
X10034467Y-8043508D01*
X10034467Y-8043508D02*
X10043991Y-8053031D01*
X10043991Y-8053031D02*
X10053515Y-8072079D01*
X10053515Y-8072079D02*
X10063039Y-8110174D01*
X10063039Y-8110174D02*
X10063039Y-8157793D01*
X10063039Y-8157793D02*
X10053515Y-8195888D01*
X10053515Y-8195888D02*
X10043991Y-8214936D01*
X10043991Y-8214936D02*
X10034467Y-8224460D01*
X10034467Y-8224460D02*
X10015420Y-8233984D01*
X10015420Y-8233984D02*
X9996372Y-8233984D01*
X9996372Y-8233984D02*
X9977324Y-8224460D01*
X9977324Y-8224460D02*
X9967801Y-8214936D01*
X9967801Y-8214936D02*
X9958277Y-8195888D01*
X9958277Y-8195888D02*
X9948753Y-8157793D01*
X9948753Y-8157793D02*
X9948753Y-8110174D01*
X9948753Y-8110174D02*
X9958277Y-8072079D01*
X9958277Y-8072079D02*
X9967801Y-8053031D01*
X9967801Y-8053031D02*
X9977324Y-8043508D01*
X9977324Y-8043508D02*
X9996372Y-8033984D01*
X10148753Y-8214936D02*
X10158277Y-8224460D01*
X10158277Y-8224460D02*
X10148753Y-8233984D01*
X10148753Y-8233984D02*
X10139229Y-8224460D01*
X10139229Y-8224460D02*
X10148753Y-8214936D01*
X10148753Y-8214936D02*
X10148753Y-8233984D01*
X10234467Y-8053031D02*
X10243991Y-8043508D01*
X10243991Y-8043508D02*
X10263039Y-8033984D01*
X10263039Y-8033984D02*
X10310658Y-8033984D01*
X10310658Y-8033984D02*
X10329705Y-8043508D01*
X10329705Y-8043508D02*
X10339229Y-8053031D01*
X10339229Y-8053031D02*
X10348753Y-8072079D01*
X10348753Y-8072079D02*
X10348753Y-8091127D01*
X10348753Y-8091127D02*
X10339229Y-8119698D01*
X10339229Y-8119698D02*
X10224944Y-8233984D01*
X10224944Y-8233984D02*
X10348753Y-8233984D01*
X10472563Y-8033984D02*
X10491610Y-8033984D01*
X10491610Y-8033984D02*
X10510658Y-8043508D01*
X10510658Y-8043508D02*
X10520182Y-8053031D01*
X10520182Y-8053031D02*
X10529705Y-8072079D01*
X10529705Y-8072079D02*
X10539229Y-8110174D01*
X10539229Y-8110174D02*
X10539229Y-8157793D01*
X10539229Y-8157793D02*
X10529705Y-8195888D01*
X10529705Y-8195888D02*
X10520182Y-8214936D01*
X10520182Y-8214936D02*
X10510658Y-8224460D01*
X10510658Y-8224460D02*
X10491610Y-8233984D01*
X10491610Y-8233984D02*
X10472563Y-8233984D01*
X10472563Y-8233984D02*
X10453515Y-8224460D01*
X10453515Y-8224460D02*
X10443991Y-8214936D01*
X10443991Y-8214936D02*
X10434467Y-8195888D01*
X10434467Y-8195888D02*
X10424944Y-8157793D01*
X10424944Y-8157793D02*
X10424944Y-8110174D01*
X10424944Y-8110174D02*
X10434467Y-8072079D01*
X10434467Y-8072079D02*
X10443991Y-8053031D01*
X10443991Y-8053031D02*
X10453515Y-8043508D01*
X10453515Y-8043508D02*
X10472563Y-8033984D01*
X10663039Y-8033984D02*
X10682086Y-8033984D01*
X10682086Y-8033984D02*
X10701134Y-8043508D01*
X10701134Y-8043508D02*
X10710658Y-8053031D01*
X10710658Y-8053031D02*
X10720182Y-8072079D01*
X10720182Y-8072079D02*
X10729705Y-8110174D01*
X10729705Y-8110174D02*
X10729705Y-8157793D01*
X10729705Y-8157793D02*
X10720182Y-8195888D01*
X10720182Y-8195888D02*
X10710658Y-8214936D01*
X10710658Y-8214936D02*
X10701134Y-8224460D01*
X10701134Y-8224460D02*
X10682086Y-8233984D01*
X10682086Y-8233984D02*
X10663039Y-8233984D01*
X10663039Y-8233984D02*
X10643991Y-8224460D01*
X10643991Y-8224460D02*
X10634467Y-8214936D01*
X10634467Y-8214936D02*
X10624944Y-8195888D01*
X10624944Y-8195888D02*
X10615420Y-8157793D01*
X10615420Y-8157793D02*
X10615420Y-8110174D01*
X10615420Y-8110174D02*
X10624944Y-8072079D01*
X10624944Y-8072079D02*
X10634467Y-8053031D01*
X10634467Y-8053031D02*
X10643991Y-8043508D01*
X10643991Y-8043508D02*
X10663039Y-8033984D01*
X10815420Y-8233984D02*
X10815420Y-8100650D01*
X10815420Y-8119698D02*
X10824944Y-8110174D01*
X10824944Y-8110174D02*
X10843991Y-8100650D01*
X10843991Y-8100650D02*
X10872563Y-8100650D01*
X10872563Y-8100650D02*
X10891610Y-8110174D01*
X10891610Y-8110174D02*
X10901134Y-8129222D01*
X10901134Y-8129222D02*
X10901134Y-8233984D01*
X10901134Y-8129222D02*
X10910658Y-8110174D01*
X10910658Y-8110174D02*
X10929705Y-8100650D01*
X10929705Y-8100650D02*
X10958277Y-8100650D01*
X10958277Y-8100650D02*
X10977325Y-8110174D01*
X10977325Y-8110174D02*
X10986848Y-8129222D01*
X10986848Y-8129222D02*
X10986848Y-8233984D01*
X11082086Y-8233984D02*
X11082086Y-8100650D01*
X11082086Y-8119698D02*
X11091610Y-8110174D01*
X11091610Y-8110174D02*
X11110658Y-8100650D01*
X11110658Y-8100650D02*
X11139229Y-8100650D01*
X11139229Y-8100650D02*
X11158277Y-8110174D01*
X11158277Y-8110174D02*
X11167801Y-8129222D01*
X11167801Y-8129222D02*
X11167801Y-8233984D01*
X11167801Y-8129222D02*
X11177325Y-8110174D01*
X11177325Y-8110174D02*
X11196372Y-8100650D01*
X11196372Y-8100650D02*
X11224943Y-8100650D01*
X11224943Y-8100650D02*
X11243991Y-8110174D01*
X11243991Y-8110174D02*
X11253515Y-8129222D01*
X11253515Y-8129222D02*
X11253515Y-8233984D01*
X11643991Y-8024460D02*
X11472563Y-8281603D01*
X11901134Y-8033984D02*
X11920182Y-8033984D01*
X11920182Y-8033984D02*
X11939229Y-8043508D01*
X11939229Y-8043508D02*
X11948753Y-8053031D01*
X11948753Y-8053031D02*
X11958277Y-8072079D01*
X11958277Y-8072079D02*
X11967801Y-8110174D01*
X11967801Y-8110174D02*
X11967801Y-8157793D01*
X11967801Y-8157793D02*
X11958277Y-8195888D01*
X11958277Y-8195888D02*
X11948753Y-8214936D01*
X11948753Y-8214936D02*
X11939229Y-8224460D01*
X11939229Y-8224460D02*
X11920182Y-8233984D01*
X11920182Y-8233984D02*
X11901134Y-8233984D01*
X11901134Y-8233984D02*
X11882086Y-8224460D01*
X11882086Y-8224460D02*
X11872563Y-8214936D01*
X11872563Y-8214936D02*
X11863039Y-8195888D01*
X11863039Y-8195888D02*
X11853515Y-8157793D01*
X11853515Y-8157793D02*
X11853515Y-8110174D01*
X11853515Y-8110174D02*
X11863039Y-8072079D01*
X11863039Y-8072079D02*
X11872563Y-8053031D01*
X11872563Y-8053031D02*
X11882086Y-8043508D01*
X11882086Y-8043508D02*
X11901134Y-8033984D01*
X12053515Y-8214936D02*
X12063039Y-8224460D01*
X12063039Y-8224460D02*
X12053515Y-8233984D01*
X12053515Y-8233984D02*
X12043991Y-8224460D01*
X12043991Y-8224460D02*
X12053515Y-8214936D01*
X12053515Y-8214936D02*
X12053515Y-8233984D01*
X12186848Y-8033984D02*
X12205896Y-8033984D01*
X12205896Y-8033984D02*
X12224944Y-8043508D01*
X12224944Y-8043508D02*
X12234467Y-8053031D01*
X12234467Y-8053031D02*
X12243991Y-8072079D01*
X12243991Y-8072079D02*
X12253515Y-8110174D01*
X12253515Y-8110174D02*
X12253515Y-8157793D01*
X12253515Y-8157793D02*
X12243991Y-8195888D01*
X12243991Y-8195888D02*
X12234467Y-8214936D01*
X12234467Y-8214936D02*
X12224944Y-8224460D01*
X12224944Y-8224460D02*
X12205896Y-8233984D01*
X12205896Y-8233984D02*
X12186848Y-8233984D01*
X12186848Y-8233984D02*
X12167801Y-8224460D01*
X12167801Y-8224460D02*
X12158277Y-8214936D01*
X12158277Y-8214936D02*
X12148753Y-8195888D01*
X12148753Y-8195888D02*
X12139229Y-8157793D01*
X12139229Y-8157793D02*
X12139229Y-8110174D01*
X12139229Y-8110174D02*
X12148753Y-8072079D01*
X12148753Y-8072079D02*
X12158277Y-8053031D01*
X12158277Y-8053031D02*
X12167801Y-8043508D01*
X12167801Y-8043508D02*
X12186848Y-8033984D01*
X12377325Y-8033984D02*
X12396372Y-8033984D01*
X12396372Y-8033984D02*
X12415420Y-8043508D01*
X12415420Y-8043508D02*
X12424944Y-8053031D01*
X12424944Y-8053031D02*
X12434467Y-8072079D01*
X12434467Y-8072079D02*
X12443991Y-8110174D01*
X12443991Y-8110174D02*
X12443991Y-8157793D01*
X12443991Y-8157793D02*
X12434467Y-8195888D01*
X12434467Y-8195888D02*
X12424944Y-8214936D01*
X12424944Y-8214936D02*
X12415420Y-8224460D01*
X12415420Y-8224460D02*
X12396372Y-8233984D01*
X12396372Y-8233984D02*
X12377325Y-8233984D01*
X12377325Y-8233984D02*
X12358277Y-8224460D01*
X12358277Y-8224460D02*
X12348753Y-8214936D01*
X12348753Y-8214936D02*
X12339229Y-8195888D01*
X12339229Y-8195888D02*
X12329706Y-8157793D01*
X12329706Y-8157793D02*
X12329706Y-8110174D01*
X12329706Y-8110174D02*
X12339229Y-8072079D01*
X12339229Y-8072079D02*
X12348753Y-8053031D01*
X12348753Y-8053031D02*
X12358277Y-8043508D01*
X12358277Y-8043508D02*
X12377325Y-8033984D01*
X12510658Y-8033984D02*
X12643991Y-8033984D01*
X12643991Y-8033984D02*
X12558277Y-8233984D01*
X12729706Y-8233984D02*
X12767801Y-8233984D01*
X12767801Y-8233984D02*
X12786848Y-8224460D01*
X12786848Y-8224460D02*
X12796372Y-8214936D01*
X12796372Y-8214936D02*
X12815420Y-8186365D01*
X12815420Y-8186365D02*
X12824944Y-8148269D01*
X12824944Y-8148269D02*
X12824944Y-8072079D01*
X12824944Y-8072079D02*
X12815420Y-8053031D01*
X12815420Y-8053031D02*
X12805896Y-8043508D01*
X12805896Y-8043508D02*
X12786848Y-8033984D01*
X12786848Y-8033984D02*
X12748753Y-8033984D01*
X12748753Y-8033984D02*
X12729706Y-8043508D01*
X12729706Y-8043508D02*
X12720182Y-8053031D01*
X12720182Y-8053031D02*
X12710658Y-8072079D01*
X12710658Y-8072079D02*
X12710658Y-8119698D01*
X12710658Y-8119698D02*
X12720182Y-8138746D01*
X12720182Y-8138746D02*
X12729706Y-8148269D01*
X12729706Y-8148269D02*
X12748753Y-8157793D01*
X12748753Y-8157793D02*
X12786848Y-8157793D01*
X12786848Y-8157793D02*
X12805896Y-8148269D01*
X12805896Y-8148269D02*
X12815420Y-8138746D01*
X12815420Y-8138746D02*
X12824944Y-8119698D01*
X12901134Y-8033984D02*
X12901134Y-8072079D01*
X12977325Y-8033984D02*
X12977325Y-8072079D01*
X13272563Y-8310174D02*
X13263039Y-8300650D01*
X13263039Y-8300650D02*
X13243991Y-8272079D01*
X13243991Y-8272079D02*
X13234468Y-8253031D01*
X13234468Y-8253031D02*
X13224944Y-8224460D01*
X13224944Y-8224460D02*
X13215420Y-8176841D01*
X13215420Y-8176841D02*
X13215420Y-8138746D01*
X13215420Y-8138746D02*
X13224944Y-8091127D01*
X13224944Y-8091127D02*
X13234468Y-8062555D01*
X13234468Y-8062555D02*
X13243991Y-8043508D01*
X13243991Y-8043508D02*
X13263039Y-8014936D01*
X13263039Y-8014936D02*
X13272563Y-8005412D01*
X13453515Y-8233984D02*
X13339229Y-8233984D01*
X13396372Y-8233984D02*
X13396372Y-8033984D01*
X13396372Y-8033984D02*
X13377325Y-8062555D01*
X13377325Y-8062555D02*
X13358277Y-8081603D01*
X13358277Y-8081603D02*
X13339229Y-8091127D01*
X13529706Y-8053031D02*
X13539229Y-8043508D01*
X13539229Y-8043508D02*
X13558277Y-8033984D01*
X13558277Y-8033984D02*
X13605896Y-8033984D01*
X13605896Y-8033984D02*
X13624944Y-8043508D01*
X13624944Y-8043508D02*
X13634468Y-8053031D01*
X13634468Y-8053031D02*
X13643991Y-8072079D01*
X13643991Y-8072079D02*
X13643991Y-8091127D01*
X13643991Y-8091127D02*
X13634468Y-8119698D01*
X13634468Y-8119698D02*
X13520182Y-8233984D01*
X13520182Y-8233984D02*
X13643991Y-8233984D01*
X13882087Y-8233984D02*
X13882087Y-8033984D01*
X13967801Y-8233984D02*
X13967801Y-8129222D01*
X13967801Y-8129222D02*
X13958277Y-8110174D01*
X13958277Y-8110174D02*
X13939230Y-8100650D01*
X13939230Y-8100650D02*
X13910658Y-8100650D01*
X13910658Y-8100650D02*
X13891610Y-8110174D01*
X13891610Y-8110174D02*
X13882087Y-8119698D01*
X14091610Y-8233984D02*
X14072563Y-8224460D01*
X14072563Y-8224460D02*
X14063039Y-8214936D01*
X14063039Y-8214936D02*
X14053515Y-8195888D01*
X14053515Y-8195888D02*
X14053515Y-8138746D01*
X14053515Y-8138746D02*
X14063039Y-8119698D01*
X14063039Y-8119698D02*
X14072563Y-8110174D01*
X14072563Y-8110174D02*
X14091610Y-8100650D01*
X14091610Y-8100650D02*
X14120182Y-8100650D01*
X14120182Y-8100650D02*
X14139230Y-8110174D01*
X14139230Y-8110174D02*
X14148753Y-8119698D01*
X14148753Y-8119698D02*
X14158277Y-8138746D01*
X14158277Y-8138746D02*
X14158277Y-8195888D01*
X14158277Y-8195888D02*
X14148753Y-8214936D01*
X14148753Y-8214936D02*
X14139230Y-8224460D01*
X14139230Y-8224460D02*
X14120182Y-8233984D01*
X14120182Y-8233984D02*
X14091610Y-8233984D01*
X14272563Y-8233984D02*
X14253515Y-8224460D01*
X14253515Y-8224460D02*
X14243991Y-8205412D01*
X14243991Y-8205412D02*
X14243991Y-8033984D01*
X14424944Y-8224460D02*
X14405896Y-8233984D01*
X14405896Y-8233984D02*
X14367801Y-8233984D01*
X14367801Y-8233984D02*
X14348753Y-8224460D01*
X14348753Y-8224460D02*
X14339230Y-8205412D01*
X14339230Y-8205412D02*
X14339230Y-8129222D01*
X14339230Y-8129222D02*
X14348753Y-8110174D01*
X14348753Y-8110174D02*
X14367801Y-8100650D01*
X14367801Y-8100650D02*
X14405896Y-8100650D01*
X14405896Y-8100650D02*
X14424944Y-8110174D01*
X14424944Y-8110174D02*
X14434468Y-8129222D01*
X14434468Y-8129222D02*
X14434468Y-8148269D01*
X14434468Y-8148269D02*
X14339230Y-8167317D01*
X14510658Y-8224460D02*
X14529706Y-8233984D01*
X14529706Y-8233984D02*
X14567801Y-8233984D01*
X14567801Y-8233984D02*
X14586849Y-8224460D01*
X14586849Y-8224460D02*
X14596372Y-8205412D01*
X14596372Y-8205412D02*
X14596372Y-8195888D01*
X14596372Y-8195888D02*
X14586849Y-8176841D01*
X14586849Y-8176841D02*
X14567801Y-8167317D01*
X14567801Y-8167317D02*
X14539230Y-8167317D01*
X14539230Y-8167317D02*
X14520182Y-8157793D01*
X14520182Y-8157793D02*
X14510658Y-8138746D01*
X14510658Y-8138746D02*
X14510658Y-8129222D01*
X14510658Y-8129222D02*
X14520182Y-8110174D01*
X14520182Y-8110174D02*
X14539230Y-8100650D01*
X14539230Y-8100650D02*
X14567801Y-8100650D01*
X14567801Y-8100650D02*
X14586849Y-8110174D01*
X14663039Y-8310174D02*
X14672563Y-8300650D01*
X14672563Y-8300650D02*
X14691611Y-8272079D01*
X14691611Y-8272079D02*
X14701134Y-8253031D01*
X14701134Y-8253031D02*
X14710658Y-8224460D01*
X14710658Y-8224460D02*
X14720182Y-8176841D01*
X14720182Y-8176841D02*
X14720182Y-8138746D01*
X14720182Y-8138746D02*
X14710658Y-8091127D01*
X14710658Y-8091127D02*
X14701134Y-8062555D01*
X14701134Y-8062555D02*
X14691611Y-8043508D01*
X14691611Y-8043508D02*
X14672563Y-8014936D01*
X14672563Y-8014936D02*
X14663039Y-8005412D01*
D12*
X9697500Y-8406500D02*
G75*
G02*
X9667500Y-8406500I-15000J0D01*
G01*
X9667500Y-8406500D02*
G75*
G02*
X9697500Y-8406500I15000J0D01*
G01*
D11*
X9996372Y-8297984D02*
X10015420Y-8297984D01*
X10015420Y-8297984D02*
X10034467Y-8307508D01*
X10034467Y-8307508D02*
X10043991Y-8317031D01*
X10043991Y-8317031D02*
X10053515Y-8336079D01*
X10053515Y-8336079D02*
X10063039Y-8374174D01*
X10063039Y-8374174D02*
X10063039Y-8421793D01*
X10063039Y-8421793D02*
X10053515Y-8459889D01*
X10053515Y-8459889D02*
X10043991Y-8478936D01*
X10043991Y-8478936D02*
X10034467Y-8488460D01*
X10034467Y-8488460D02*
X10015420Y-8497984D01*
X10015420Y-8497984D02*
X9996372Y-8497984D01*
X9996372Y-8497984D02*
X9977324Y-8488460D01*
X9977324Y-8488460D02*
X9967801Y-8478936D01*
X9967801Y-8478936D02*
X9958277Y-8459889D01*
X9958277Y-8459889D02*
X9948753Y-8421793D01*
X9948753Y-8421793D02*
X9948753Y-8374174D01*
X9948753Y-8374174D02*
X9958277Y-8336079D01*
X9958277Y-8336079D02*
X9967801Y-8317031D01*
X9967801Y-8317031D02*
X9977324Y-8307508D01*
X9977324Y-8307508D02*
X9996372Y-8297984D01*
X10148753Y-8478936D02*
X10158277Y-8488460D01*
X10158277Y-8488460D02*
X10148753Y-8497984D01*
X10148753Y-8497984D02*
X10139229Y-8488460D01*
X10139229Y-8488460D02*
X10148753Y-8478936D01*
X10148753Y-8478936D02*
X10148753Y-8497984D01*
X10224944Y-8297984D02*
X10348753Y-8297984D01*
X10348753Y-8297984D02*
X10282086Y-8374174D01*
X10282086Y-8374174D02*
X10310658Y-8374174D01*
X10310658Y-8374174D02*
X10329705Y-8383698D01*
X10329705Y-8383698D02*
X10339229Y-8393222D01*
X10339229Y-8393222D02*
X10348753Y-8412270D01*
X10348753Y-8412270D02*
X10348753Y-8459889D01*
X10348753Y-8459889D02*
X10339229Y-8478936D01*
X10339229Y-8478936D02*
X10329705Y-8488460D01*
X10329705Y-8488460D02*
X10310658Y-8497984D01*
X10310658Y-8497984D02*
X10253515Y-8497984D01*
X10253515Y-8497984D02*
X10234467Y-8488460D01*
X10234467Y-8488460D02*
X10224944Y-8478936D01*
X10472563Y-8297984D02*
X10491610Y-8297984D01*
X10491610Y-8297984D02*
X10510658Y-8307508D01*
X10510658Y-8307508D02*
X10520182Y-8317031D01*
X10520182Y-8317031D02*
X10529705Y-8336079D01*
X10529705Y-8336079D02*
X10539229Y-8374174D01*
X10539229Y-8374174D02*
X10539229Y-8421793D01*
X10539229Y-8421793D02*
X10529705Y-8459889D01*
X10529705Y-8459889D02*
X10520182Y-8478936D01*
X10520182Y-8478936D02*
X10510658Y-8488460D01*
X10510658Y-8488460D02*
X10491610Y-8497984D01*
X10491610Y-8497984D02*
X10472563Y-8497984D01*
X10472563Y-8497984D02*
X10453515Y-8488460D01*
X10453515Y-8488460D02*
X10443991Y-8478936D01*
X10443991Y-8478936D02*
X10434467Y-8459889D01*
X10434467Y-8459889D02*
X10424944Y-8421793D01*
X10424944Y-8421793D02*
X10424944Y-8374174D01*
X10424944Y-8374174D02*
X10434467Y-8336079D01*
X10434467Y-8336079D02*
X10443991Y-8317031D01*
X10443991Y-8317031D02*
X10453515Y-8307508D01*
X10453515Y-8307508D02*
X10472563Y-8297984D01*
X10663039Y-8297984D02*
X10682086Y-8297984D01*
X10682086Y-8297984D02*
X10701134Y-8307508D01*
X10701134Y-8307508D02*
X10710658Y-8317031D01*
X10710658Y-8317031D02*
X10720182Y-8336079D01*
X10720182Y-8336079D02*
X10729705Y-8374174D01*
X10729705Y-8374174D02*
X10729705Y-8421793D01*
X10729705Y-8421793D02*
X10720182Y-8459889D01*
X10720182Y-8459889D02*
X10710658Y-8478936D01*
X10710658Y-8478936D02*
X10701134Y-8488460D01*
X10701134Y-8488460D02*
X10682086Y-8497984D01*
X10682086Y-8497984D02*
X10663039Y-8497984D01*
X10663039Y-8497984D02*
X10643991Y-8488460D01*
X10643991Y-8488460D02*
X10634467Y-8478936D01*
X10634467Y-8478936D02*
X10624944Y-8459889D01*
X10624944Y-8459889D02*
X10615420Y-8421793D01*
X10615420Y-8421793D02*
X10615420Y-8374174D01*
X10615420Y-8374174D02*
X10624944Y-8336079D01*
X10624944Y-8336079D02*
X10634467Y-8317031D01*
X10634467Y-8317031D02*
X10643991Y-8307508D01*
X10643991Y-8307508D02*
X10663039Y-8297984D01*
X10815420Y-8497984D02*
X10815420Y-8364650D01*
X10815420Y-8383698D02*
X10824944Y-8374174D01*
X10824944Y-8374174D02*
X10843991Y-8364650D01*
X10843991Y-8364650D02*
X10872563Y-8364650D01*
X10872563Y-8364650D02*
X10891610Y-8374174D01*
X10891610Y-8374174D02*
X10901134Y-8393222D01*
X10901134Y-8393222D02*
X10901134Y-8497984D01*
X10901134Y-8393222D02*
X10910658Y-8374174D01*
X10910658Y-8374174D02*
X10929705Y-8364650D01*
X10929705Y-8364650D02*
X10958277Y-8364650D01*
X10958277Y-8364650D02*
X10977325Y-8374174D01*
X10977325Y-8374174D02*
X10986848Y-8393222D01*
X10986848Y-8393222D02*
X10986848Y-8497984D01*
X11082086Y-8497984D02*
X11082086Y-8364650D01*
X11082086Y-8383698D02*
X11091610Y-8374174D01*
X11091610Y-8374174D02*
X11110658Y-8364650D01*
X11110658Y-8364650D02*
X11139229Y-8364650D01*
X11139229Y-8364650D02*
X11158277Y-8374174D01*
X11158277Y-8374174D02*
X11167801Y-8393222D01*
X11167801Y-8393222D02*
X11167801Y-8497984D01*
X11167801Y-8393222D02*
X11177325Y-8374174D01*
X11177325Y-8374174D02*
X11196372Y-8364650D01*
X11196372Y-8364650D02*
X11224943Y-8364650D01*
X11224943Y-8364650D02*
X11243991Y-8374174D01*
X11243991Y-8374174D02*
X11253515Y-8393222D01*
X11253515Y-8393222D02*
X11253515Y-8497984D01*
X11643991Y-8288460D02*
X11472563Y-8545603D01*
X11901134Y-8297984D02*
X11920182Y-8297984D01*
X11920182Y-8297984D02*
X11939229Y-8307508D01*
X11939229Y-8307508D02*
X11948753Y-8317031D01*
X11948753Y-8317031D02*
X11958277Y-8336079D01*
X11958277Y-8336079D02*
X11967801Y-8374174D01*
X11967801Y-8374174D02*
X11967801Y-8421793D01*
X11967801Y-8421793D02*
X11958277Y-8459889D01*
X11958277Y-8459889D02*
X11948753Y-8478936D01*
X11948753Y-8478936D02*
X11939229Y-8488460D01*
X11939229Y-8488460D02*
X11920182Y-8497984D01*
X11920182Y-8497984D02*
X11901134Y-8497984D01*
X11901134Y-8497984D02*
X11882086Y-8488460D01*
X11882086Y-8488460D02*
X11872563Y-8478936D01*
X11872563Y-8478936D02*
X11863039Y-8459889D01*
X11863039Y-8459889D02*
X11853515Y-8421793D01*
X11853515Y-8421793D02*
X11853515Y-8374174D01*
X11853515Y-8374174D02*
X11863039Y-8336079D01*
X11863039Y-8336079D02*
X11872563Y-8317031D01*
X11872563Y-8317031D02*
X11882086Y-8307508D01*
X11882086Y-8307508D02*
X11901134Y-8297984D01*
X12053515Y-8478936D02*
X12063039Y-8488460D01*
X12063039Y-8488460D02*
X12053515Y-8497984D01*
X12053515Y-8497984D02*
X12043991Y-8488460D01*
X12043991Y-8488460D02*
X12053515Y-8478936D01*
X12053515Y-8478936D02*
X12053515Y-8497984D01*
X12186848Y-8297984D02*
X12205896Y-8297984D01*
X12205896Y-8297984D02*
X12224944Y-8307508D01*
X12224944Y-8307508D02*
X12234467Y-8317031D01*
X12234467Y-8317031D02*
X12243991Y-8336079D01*
X12243991Y-8336079D02*
X12253515Y-8374174D01*
X12253515Y-8374174D02*
X12253515Y-8421793D01*
X12253515Y-8421793D02*
X12243991Y-8459889D01*
X12243991Y-8459889D02*
X12234467Y-8478936D01*
X12234467Y-8478936D02*
X12224944Y-8488460D01*
X12224944Y-8488460D02*
X12205896Y-8497984D01*
X12205896Y-8497984D02*
X12186848Y-8497984D01*
X12186848Y-8497984D02*
X12167801Y-8488460D01*
X12167801Y-8488460D02*
X12158277Y-8478936D01*
X12158277Y-8478936D02*
X12148753Y-8459889D01*
X12148753Y-8459889D02*
X12139229Y-8421793D01*
X12139229Y-8421793D02*
X12139229Y-8374174D01*
X12139229Y-8374174D02*
X12148753Y-8336079D01*
X12148753Y-8336079D02*
X12158277Y-8317031D01*
X12158277Y-8317031D02*
X12167801Y-8307508D01*
X12167801Y-8307508D02*
X12186848Y-8297984D01*
X12443991Y-8497984D02*
X12329706Y-8497984D01*
X12386848Y-8497984D02*
X12386848Y-8297984D01*
X12386848Y-8297984D02*
X12367801Y-8326555D01*
X12367801Y-8326555D02*
X12348753Y-8345603D01*
X12348753Y-8345603D02*
X12329706Y-8355127D01*
X12634467Y-8497984D02*
X12520182Y-8497984D01*
X12577325Y-8497984D02*
X12577325Y-8297984D01*
X12577325Y-8297984D02*
X12558277Y-8326555D01*
X12558277Y-8326555D02*
X12539229Y-8345603D01*
X12539229Y-8345603D02*
X12520182Y-8355127D01*
X12748753Y-8383698D02*
X12729706Y-8374174D01*
X12729706Y-8374174D02*
X12720182Y-8364650D01*
X12720182Y-8364650D02*
X12710658Y-8345603D01*
X12710658Y-8345603D02*
X12710658Y-8336079D01*
X12710658Y-8336079D02*
X12720182Y-8317031D01*
X12720182Y-8317031D02*
X12729706Y-8307508D01*
X12729706Y-8307508D02*
X12748753Y-8297984D01*
X12748753Y-8297984D02*
X12786848Y-8297984D01*
X12786848Y-8297984D02*
X12805896Y-8307508D01*
X12805896Y-8307508D02*
X12815420Y-8317031D01*
X12815420Y-8317031D02*
X12824944Y-8336079D01*
X12824944Y-8336079D02*
X12824944Y-8345603D01*
X12824944Y-8345603D02*
X12815420Y-8364650D01*
X12815420Y-8364650D02*
X12805896Y-8374174D01*
X12805896Y-8374174D02*
X12786848Y-8383698D01*
X12786848Y-8383698D02*
X12748753Y-8383698D01*
X12748753Y-8383698D02*
X12729706Y-8393222D01*
X12729706Y-8393222D02*
X12720182Y-8402746D01*
X12720182Y-8402746D02*
X12710658Y-8421793D01*
X12710658Y-8421793D02*
X12710658Y-8459889D01*
X12710658Y-8459889D02*
X12720182Y-8478936D01*
X12720182Y-8478936D02*
X12729706Y-8488460D01*
X12729706Y-8488460D02*
X12748753Y-8497984D01*
X12748753Y-8497984D02*
X12786848Y-8497984D01*
X12786848Y-8497984D02*
X12805896Y-8488460D01*
X12805896Y-8488460D02*
X12815420Y-8478936D01*
X12815420Y-8478936D02*
X12824944Y-8459889D01*
X12824944Y-8459889D02*
X12824944Y-8421793D01*
X12824944Y-8421793D02*
X12815420Y-8402746D01*
X12815420Y-8402746D02*
X12805896Y-8393222D01*
X12805896Y-8393222D02*
X12786848Y-8383698D01*
X12901134Y-8297984D02*
X12901134Y-8336079D01*
X12977325Y-8297984D02*
X12977325Y-8336079D01*
X13272563Y-8574174D02*
X13263039Y-8564650D01*
X13263039Y-8564650D02*
X13243991Y-8536079D01*
X13243991Y-8536079D02*
X13234468Y-8517031D01*
X13234468Y-8517031D02*
X13224944Y-8488460D01*
X13224944Y-8488460D02*
X13215420Y-8440841D01*
X13215420Y-8440841D02*
X13215420Y-8402746D01*
X13215420Y-8402746D02*
X13224944Y-8355127D01*
X13224944Y-8355127D02*
X13234468Y-8326555D01*
X13234468Y-8326555D02*
X13243991Y-8307508D01*
X13243991Y-8307508D02*
X13263039Y-8278936D01*
X13263039Y-8278936D02*
X13272563Y-8269412D01*
X13434468Y-8364650D02*
X13434468Y-8497984D01*
X13386848Y-8288460D02*
X13339229Y-8431317D01*
X13339229Y-8431317D02*
X13463039Y-8431317D01*
X13529706Y-8317031D02*
X13539229Y-8307508D01*
X13539229Y-8307508D02*
X13558277Y-8297984D01*
X13558277Y-8297984D02*
X13605896Y-8297984D01*
X13605896Y-8297984D02*
X13624944Y-8307508D01*
X13624944Y-8307508D02*
X13634468Y-8317031D01*
X13634468Y-8317031D02*
X13643991Y-8336079D01*
X13643991Y-8336079D02*
X13643991Y-8355127D01*
X13643991Y-8355127D02*
X13634468Y-8383698D01*
X13634468Y-8383698D02*
X13520182Y-8497984D01*
X13520182Y-8497984D02*
X13643991Y-8497984D01*
X13882087Y-8497984D02*
X13882087Y-8297984D01*
X13967801Y-8497984D02*
X13967801Y-8393222D01*
X13967801Y-8393222D02*
X13958277Y-8374174D01*
X13958277Y-8374174D02*
X13939230Y-8364650D01*
X13939230Y-8364650D02*
X13910658Y-8364650D01*
X13910658Y-8364650D02*
X13891610Y-8374174D01*
X13891610Y-8374174D02*
X13882087Y-8383698D01*
X14091610Y-8497984D02*
X14072563Y-8488460D01*
X14072563Y-8488460D02*
X14063039Y-8478936D01*
X14063039Y-8478936D02*
X14053515Y-8459889D01*
X14053515Y-8459889D02*
X14053515Y-8402746D01*
X14053515Y-8402746D02*
X14063039Y-8383698D01*
X14063039Y-8383698D02*
X14072563Y-8374174D01*
X14072563Y-8374174D02*
X14091610Y-8364650D01*
X14091610Y-8364650D02*
X14120182Y-8364650D01*
X14120182Y-8364650D02*
X14139230Y-8374174D01*
X14139230Y-8374174D02*
X14148753Y-8383698D01*
X14148753Y-8383698D02*
X14158277Y-8402746D01*
X14158277Y-8402746D02*
X14158277Y-8459889D01*
X14158277Y-8459889D02*
X14148753Y-8478936D01*
X14148753Y-8478936D02*
X14139230Y-8488460D01*
X14139230Y-8488460D02*
X14120182Y-8497984D01*
X14120182Y-8497984D02*
X14091610Y-8497984D01*
X14272563Y-8497984D02*
X14253515Y-8488460D01*
X14253515Y-8488460D02*
X14243991Y-8469412D01*
X14243991Y-8469412D02*
X14243991Y-8297984D01*
X14424944Y-8488460D02*
X14405896Y-8497984D01*
X14405896Y-8497984D02*
X14367801Y-8497984D01*
X14367801Y-8497984D02*
X14348753Y-8488460D01*
X14348753Y-8488460D02*
X14339230Y-8469412D01*
X14339230Y-8469412D02*
X14339230Y-8393222D01*
X14339230Y-8393222D02*
X14348753Y-8374174D01*
X14348753Y-8374174D02*
X14367801Y-8364650D01*
X14367801Y-8364650D02*
X14405896Y-8364650D01*
X14405896Y-8364650D02*
X14424944Y-8374174D01*
X14424944Y-8374174D02*
X14434468Y-8393222D01*
X14434468Y-8393222D02*
X14434468Y-8412270D01*
X14434468Y-8412270D02*
X14339230Y-8431317D01*
X14510658Y-8488460D02*
X14529706Y-8497984D01*
X14529706Y-8497984D02*
X14567801Y-8497984D01*
X14567801Y-8497984D02*
X14586849Y-8488460D01*
X14586849Y-8488460D02*
X14596372Y-8469412D01*
X14596372Y-8469412D02*
X14596372Y-8459889D01*
X14596372Y-8459889D02*
X14586849Y-8440841D01*
X14586849Y-8440841D02*
X14567801Y-8431317D01*
X14567801Y-8431317D02*
X14539230Y-8431317D01*
X14539230Y-8431317D02*
X14520182Y-8421793D01*
X14520182Y-8421793D02*
X14510658Y-8402746D01*
X14510658Y-8402746D02*
X14510658Y-8393222D01*
X14510658Y-8393222D02*
X14520182Y-8374174D01*
X14520182Y-8374174D02*
X14539230Y-8364650D01*
X14539230Y-8364650D02*
X14567801Y-8364650D01*
X14567801Y-8364650D02*
X14586849Y-8374174D01*
X14663039Y-8574174D02*
X14672563Y-8564650D01*
X14672563Y-8564650D02*
X14691611Y-8536079D01*
X14691611Y-8536079D02*
X14701134Y-8517031D01*
X14701134Y-8517031D02*
X14710658Y-8488460D01*
X14710658Y-8488460D02*
X14720182Y-8440841D01*
X14720182Y-8440841D02*
X14720182Y-8402746D01*
X14720182Y-8402746D02*
X14710658Y-8355127D01*
X14710658Y-8355127D02*
X14701134Y-8326555D01*
X14701134Y-8326555D02*
X14691611Y-8307508D01*
X14691611Y-8307508D02*
X14672563Y-8278936D01*
X14672563Y-8278936D02*
X14663039Y-8269412D01*
D12*
X9672500Y-8645500D02*
X9672500Y-8695500D01*
X9647500Y-8670500D02*
X9697500Y-8670500D01*
D11*
X9996372Y-8561984D02*
X10015420Y-8561984D01*
X10015420Y-8561984D02*
X10034467Y-8571508D01*
X10034467Y-8571508D02*
X10043991Y-8581031D01*
X10043991Y-8581031D02*
X10053515Y-8600079D01*
X10053515Y-8600079D02*
X10063039Y-8638174D01*
X10063039Y-8638174D02*
X10063039Y-8685793D01*
X10063039Y-8685793D02*
X10053515Y-8723889D01*
X10053515Y-8723889D02*
X10043991Y-8742936D01*
X10043991Y-8742936D02*
X10034467Y-8752460D01*
X10034467Y-8752460D02*
X10015420Y-8761984D01*
X10015420Y-8761984D02*
X9996372Y-8761984D01*
X9996372Y-8761984D02*
X9977324Y-8752460D01*
X9977324Y-8752460D02*
X9967801Y-8742936D01*
X9967801Y-8742936D02*
X9958277Y-8723889D01*
X9958277Y-8723889D02*
X9948753Y-8685793D01*
X9948753Y-8685793D02*
X9948753Y-8638174D01*
X9948753Y-8638174D02*
X9958277Y-8600079D01*
X9958277Y-8600079D02*
X9967801Y-8581031D01*
X9967801Y-8581031D02*
X9977324Y-8571508D01*
X9977324Y-8571508D02*
X9996372Y-8561984D01*
X10148753Y-8742936D02*
X10158277Y-8752460D01*
X10158277Y-8752460D02*
X10148753Y-8761984D01*
X10148753Y-8761984D02*
X10139229Y-8752460D01*
X10139229Y-8752460D02*
X10148753Y-8742936D01*
X10148753Y-8742936D02*
X10148753Y-8761984D01*
X10339229Y-8561984D02*
X10243991Y-8561984D01*
X10243991Y-8561984D02*
X10234467Y-8657222D01*
X10234467Y-8657222D02*
X10243991Y-8647698D01*
X10243991Y-8647698D02*
X10263039Y-8638174D01*
X10263039Y-8638174D02*
X10310658Y-8638174D01*
X10310658Y-8638174D02*
X10329705Y-8647698D01*
X10329705Y-8647698D02*
X10339229Y-8657222D01*
X10339229Y-8657222D02*
X10348753Y-8676270D01*
X10348753Y-8676270D02*
X10348753Y-8723889D01*
X10348753Y-8723889D02*
X10339229Y-8742936D01*
X10339229Y-8742936D02*
X10329705Y-8752460D01*
X10329705Y-8752460D02*
X10310658Y-8761984D01*
X10310658Y-8761984D02*
X10263039Y-8761984D01*
X10263039Y-8761984D02*
X10243991Y-8752460D01*
X10243991Y-8752460D02*
X10234467Y-8742936D01*
X10472563Y-8561984D02*
X10491610Y-8561984D01*
X10491610Y-8561984D02*
X10510658Y-8571508D01*
X10510658Y-8571508D02*
X10520182Y-8581031D01*
X10520182Y-8581031D02*
X10529705Y-8600079D01*
X10529705Y-8600079D02*
X10539229Y-8638174D01*
X10539229Y-8638174D02*
X10539229Y-8685793D01*
X10539229Y-8685793D02*
X10529705Y-8723889D01*
X10529705Y-8723889D02*
X10520182Y-8742936D01*
X10520182Y-8742936D02*
X10510658Y-8752460D01*
X10510658Y-8752460D02*
X10491610Y-8761984D01*
X10491610Y-8761984D02*
X10472563Y-8761984D01*
X10472563Y-8761984D02*
X10453515Y-8752460D01*
X10453515Y-8752460D02*
X10443991Y-8742936D01*
X10443991Y-8742936D02*
X10434467Y-8723889D01*
X10434467Y-8723889D02*
X10424944Y-8685793D01*
X10424944Y-8685793D02*
X10424944Y-8638174D01*
X10424944Y-8638174D02*
X10434467Y-8600079D01*
X10434467Y-8600079D02*
X10443991Y-8581031D01*
X10443991Y-8581031D02*
X10453515Y-8571508D01*
X10453515Y-8571508D02*
X10472563Y-8561984D01*
X10663039Y-8561984D02*
X10682086Y-8561984D01*
X10682086Y-8561984D02*
X10701134Y-8571508D01*
X10701134Y-8571508D02*
X10710658Y-8581031D01*
X10710658Y-8581031D02*
X10720182Y-8600079D01*
X10720182Y-8600079D02*
X10729705Y-8638174D01*
X10729705Y-8638174D02*
X10729705Y-8685793D01*
X10729705Y-8685793D02*
X10720182Y-8723889D01*
X10720182Y-8723889D02*
X10710658Y-8742936D01*
X10710658Y-8742936D02*
X10701134Y-8752460D01*
X10701134Y-8752460D02*
X10682086Y-8761984D01*
X10682086Y-8761984D02*
X10663039Y-8761984D01*
X10663039Y-8761984D02*
X10643991Y-8752460D01*
X10643991Y-8752460D02*
X10634467Y-8742936D01*
X10634467Y-8742936D02*
X10624944Y-8723889D01*
X10624944Y-8723889D02*
X10615420Y-8685793D01*
X10615420Y-8685793D02*
X10615420Y-8638174D01*
X10615420Y-8638174D02*
X10624944Y-8600079D01*
X10624944Y-8600079D02*
X10634467Y-8581031D01*
X10634467Y-8581031D02*
X10643991Y-8571508D01*
X10643991Y-8571508D02*
X10663039Y-8561984D01*
X10815420Y-8761984D02*
X10815420Y-8628650D01*
X10815420Y-8647698D02*
X10824944Y-8638174D01*
X10824944Y-8638174D02*
X10843991Y-8628650D01*
X10843991Y-8628650D02*
X10872563Y-8628650D01*
X10872563Y-8628650D02*
X10891610Y-8638174D01*
X10891610Y-8638174D02*
X10901134Y-8657222D01*
X10901134Y-8657222D02*
X10901134Y-8761984D01*
X10901134Y-8657222D02*
X10910658Y-8638174D01*
X10910658Y-8638174D02*
X10929705Y-8628650D01*
X10929705Y-8628650D02*
X10958277Y-8628650D01*
X10958277Y-8628650D02*
X10977325Y-8638174D01*
X10977325Y-8638174D02*
X10986848Y-8657222D01*
X10986848Y-8657222D02*
X10986848Y-8761984D01*
X11082086Y-8761984D02*
X11082086Y-8628650D01*
X11082086Y-8647698D02*
X11091610Y-8638174D01*
X11091610Y-8638174D02*
X11110658Y-8628650D01*
X11110658Y-8628650D02*
X11139229Y-8628650D01*
X11139229Y-8628650D02*
X11158277Y-8638174D01*
X11158277Y-8638174D02*
X11167801Y-8657222D01*
X11167801Y-8657222D02*
X11167801Y-8761984D01*
X11167801Y-8657222D02*
X11177325Y-8638174D01*
X11177325Y-8638174D02*
X11196372Y-8628650D01*
X11196372Y-8628650D02*
X11224943Y-8628650D01*
X11224943Y-8628650D02*
X11243991Y-8638174D01*
X11243991Y-8638174D02*
X11253515Y-8657222D01*
X11253515Y-8657222D02*
X11253515Y-8761984D01*
X11643991Y-8552460D02*
X11472563Y-8809603D01*
X11901134Y-8561984D02*
X11920182Y-8561984D01*
X11920182Y-8561984D02*
X11939229Y-8571508D01*
X11939229Y-8571508D02*
X11948753Y-8581031D01*
X11948753Y-8581031D02*
X11958277Y-8600079D01*
X11958277Y-8600079D02*
X11967801Y-8638174D01*
X11967801Y-8638174D02*
X11967801Y-8685793D01*
X11967801Y-8685793D02*
X11958277Y-8723889D01*
X11958277Y-8723889D02*
X11948753Y-8742936D01*
X11948753Y-8742936D02*
X11939229Y-8752460D01*
X11939229Y-8752460D02*
X11920182Y-8761984D01*
X11920182Y-8761984D02*
X11901134Y-8761984D01*
X11901134Y-8761984D02*
X11882086Y-8752460D01*
X11882086Y-8752460D02*
X11872563Y-8742936D01*
X11872563Y-8742936D02*
X11863039Y-8723889D01*
X11863039Y-8723889D02*
X11853515Y-8685793D01*
X11853515Y-8685793D02*
X11853515Y-8638174D01*
X11853515Y-8638174D02*
X11863039Y-8600079D01*
X11863039Y-8600079D02*
X11872563Y-8581031D01*
X11872563Y-8581031D02*
X11882086Y-8571508D01*
X11882086Y-8571508D02*
X11901134Y-8561984D01*
X12053515Y-8742936D02*
X12063039Y-8752460D01*
X12063039Y-8752460D02*
X12053515Y-8761984D01*
X12053515Y-8761984D02*
X12043991Y-8752460D01*
X12043991Y-8752460D02*
X12053515Y-8742936D01*
X12053515Y-8742936D02*
X12053515Y-8761984D01*
X12186848Y-8561984D02*
X12205896Y-8561984D01*
X12205896Y-8561984D02*
X12224944Y-8571508D01*
X12224944Y-8571508D02*
X12234467Y-8581031D01*
X12234467Y-8581031D02*
X12243991Y-8600079D01*
X12243991Y-8600079D02*
X12253515Y-8638174D01*
X12253515Y-8638174D02*
X12253515Y-8685793D01*
X12253515Y-8685793D02*
X12243991Y-8723889D01*
X12243991Y-8723889D02*
X12234467Y-8742936D01*
X12234467Y-8742936D02*
X12224944Y-8752460D01*
X12224944Y-8752460D02*
X12205896Y-8761984D01*
X12205896Y-8761984D02*
X12186848Y-8761984D01*
X12186848Y-8761984D02*
X12167801Y-8752460D01*
X12167801Y-8752460D02*
X12158277Y-8742936D01*
X12158277Y-8742936D02*
X12148753Y-8723889D01*
X12148753Y-8723889D02*
X12139229Y-8685793D01*
X12139229Y-8685793D02*
X12139229Y-8638174D01*
X12139229Y-8638174D02*
X12148753Y-8600079D01*
X12148753Y-8600079D02*
X12158277Y-8581031D01*
X12158277Y-8581031D02*
X12167801Y-8571508D01*
X12167801Y-8571508D02*
X12186848Y-8561984D01*
X12443991Y-8761984D02*
X12329706Y-8761984D01*
X12386848Y-8761984D02*
X12386848Y-8561984D01*
X12386848Y-8561984D02*
X12367801Y-8590555D01*
X12367801Y-8590555D02*
X12348753Y-8609603D01*
X12348753Y-8609603D02*
X12329706Y-8619127D01*
X12539229Y-8761984D02*
X12577325Y-8761984D01*
X12577325Y-8761984D02*
X12596372Y-8752460D01*
X12596372Y-8752460D02*
X12605896Y-8742936D01*
X12605896Y-8742936D02*
X12624944Y-8714365D01*
X12624944Y-8714365D02*
X12634467Y-8676270D01*
X12634467Y-8676270D02*
X12634467Y-8600079D01*
X12634467Y-8600079D02*
X12624944Y-8581031D01*
X12624944Y-8581031D02*
X12615420Y-8571508D01*
X12615420Y-8571508D02*
X12596372Y-8561984D01*
X12596372Y-8561984D02*
X12558277Y-8561984D01*
X12558277Y-8561984D02*
X12539229Y-8571508D01*
X12539229Y-8571508D02*
X12529706Y-8581031D01*
X12529706Y-8581031D02*
X12520182Y-8600079D01*
X12520182Y-8600079D02*
X12520182Y-8647698D01*
X12520182Y-8647698D02*
X12529706Y-8666746D01*
X12529706Y-8666746D02*
X12539229Y-8676270D01*
X12539229Y-8676270D02*
X12558277Y-8685793D01*
X12558277Y-8685793D02*
X12596372Y-8685793D01*
X12596372Y-8685793D02*
X12615420Y-8676270D01*
X12615420Y-8676270D02*
X12624944Y-8666746D01*
X12624944Y-8666746D02*
X12634467Y-8647698D01*
X12701134Y-8561984D02*
X12834467Y-8561984D01*
X12834467Y-8561984D02*
X12748753Y-8761984D01*
X12901134Y-8561984D02*
X12901134Y-8600079D01*
X12977325Y-8561984D02*
X12977325Y-8600079D01*
X13272563Y-8838174D02*
X13263039Y-8828650D01*
X13263039Y-8828650D02*
X13243991Y-8800079D01*
X13243991Y-8800079D02*
X13234468Y-8781031D01*
X13234468Y-8781031D02*
X13224944Y-8752460D01*
X13224944Y-8752460D02*
X13215420Y-8704841D01*
X13215420Y-8704841D02*
X13215420Y-8666746D01*
X13215420Y-8666746D02*
X13224944Y-8619127D01*
X13224944Y-8619127D02*
X13234468Y-8590555D01*
X13234468Y-8590555D02*
X13243991Y-8571508D01*
X13243991Y-8571508D02*
X13263039Y-8542936D01*
X13263039Y-8542936D02*
X13272563Y-8533412D01*
X13339229Y-8581031D02*
X13348753Y-8571508D01*
X13348753Y-8571508D02*
X13367801Y-8561984D01*
X13367801Y-8561984D02*
X13415420Y-8561984D01*
X13415420Y-8561984D02*
X13434468Y-8571508D01*
X13434468Y-8571508D02*
X13443991Y-8581031D01*
X13443991Y-8581031D02*
X13453515Y-8600079D01*
X13453515Y-8600079D02*
X13453515Y-8619127D01*
X13453515Y-8619127D02*
X13443991Y-8647698D01*
X13443991Y-8647698D02*
X13329706Y-8761984D01*
X13329706Y-8761984D02*
X13453515Y-8761984D01*
X13691610Y-8761984D02*
X13691610Y-8561984D01*
X13777325Y-8761984D02*
X13777325Y-8657222D01*
X13777325Y-8657222D02*
X13767801Y-8638174D01*
X13767801Y-8638174D02*
X13748753Y-8628650D01*
X13748753Y-8628650D02*
X13720182Y-8628650D01*
X13720182Y-8628650D02*
X13701134Y-8638174D01*
X13701134Y-8638174D02*
X13691610Y-8647698D01*
X13901134Y-8761984D02*
X13882087Y-8752460D01*
X13882087Y-8752460D02*
X13872563Y-8742936D01*
X13872563Y-8742936D02*
X13863039Y-8723889D01*
X13863039Y-8723889D02*
X13863039Y-8666746D01*
X13863039Y-8666746D02*
X13872563Y-8647698D01*
X13872563Y-8647698D02*
X13882087Y-8638174D01*
X13882087Y-8638174D02*
X13901134Y-8628650D01*
X13901134Y-8628650D02*
X13929706Y-8628650D01*
X13929706Y-8628650D02*
X13948753Y-8638174D01*
X13948753Y-8638174D02*
X13958277Y-8647698D01*
X13958277Y-8647698D02*
X13967801Y-8666746D01*
X13967801Y-8666746D02*
X13967801Y-8723889D01*
X13967801Y-8723889D02*
X13958277Y-8742936D01*
X13958277Y-8742936D02*
X13948753Y-8752460D01*
X13948753Y-8752460D02*
X13929706Y-8761984D01*
X13929706Y-8761984D02*
X13901134Y-8761984D01*
X14082087Y-8761984D02*
X14063039Y-8752460D01*
X14063039Y-8752460D02*
X14053515Y-8733412D01*
X14053515Y-8733412D02*
X14053515Y-8561984D01*
X14234468Y-8752460D02*
X14215420Y-8761984D01*
X14215420Y-8761984D02*
X14177325Y-8761984D01*
X14177325Y-8761984D02*
X14158277Y-8752460D01*
X14158277Y-8752460D02*
X14148753Y-8733412D01*
X14148753Y-8733412D02*
X14148753Y-8657222D01*
X14148753Y-8657222D02*
X14158277Y-8638174D01*
X14158277Y-8638174D02*
X14177325Y-8628650D01*
X14177325Y-8628650D02*
X14215420Y-8628650D01*
X14215420Y-8628650D02*
X14234468Y-8638174D01*
X14234468Y-8638174D02*
X14243991Y-8657222D01*
X14243991Y-8657222D02*
X14243991Y-8676270D01*
X14243991Y-8676270D02*
X14148753Y-8695317D01*
X14320182Y-8752460D02*
X14339230Y-8761984D01*
X14339230Y-8761984D02*
X14377325Y-8761984D01*
X14377325Y-8761984D02*
X14396372Y-8752460D01*
X14396372Y-8752460D02*
X14405896Y-8733412D01*
X14405896Y-8733412D02*
X14405896Y-8723889D01*
X14405896Y-8723889D02*
X14396372Y-8704841D01*
X14396372Y-8704841D02*
X14377325Y-8695317D01*
X14377325Y-8695317D02*
X14348753Y-8695317D01*
X14348753Y-8695317D02*
X14329706Y-8685793D01*
X14329706Y-8685793D02*
X14320182Y-8666746D01*
X14320182Y-8666746D02*
X14320182Y-8657222D01*
X14320182Y-8657222D02*
X14329706Y-8638174D01*
X14329706Y-8638174D02*
X14348753Y-8628650D01*
X14348753Y-8628650D02*
X14377325Y-8628650D01*
X14377325Y-8628650D02*
X14396372Y-8638174D01*
X14472563Y-8838174D02*
X14482087Y-8828650D01*
X14482087Y-8828650D02*
X14501134Y-8800079D01*
X14501134Y-8800079D02*
X14510658Y-8781031D01*
X14510658Y-8781031D02*
X14520182Y-8752460D01*
X14520182Y-8752460D02*
X14529706Y-8704841D01*
X14529706Y-8704841D02*
X14529706Y-8666746D01*
X14529706Y-8666746D02*
X14520182Y-8619127D01*
X14520182Y-8619127D02*
X14510658Y-8590555D01*
X14510658Y-8590555D02*
X14501134Y-8571508D01*
X14501134Y-8571508D02*
X14482087Y-8542936D01*
X14482087Y-8542936D02*
X14472563Y-8533412D01*
D12*
X9682856Y-8969856D02*
X9682856Y-8899144D01*
X9612144Y-8899144D01*
X9612144Y-8969856D01*
X9682856Y-8969856D01*
D11*
X10063039Y-9025984D02*
X9948753Y-9025984D01*
X10005896Y-9025984D02*
X10005896Y-8825984D01*
X10005896Y-8825984D02*
X9986848Y-8854555D01*
X9986848Y-8854555D02*
X9967801Y-8873603D01*
X9967801Y-8873603D02*
X9948753Y-8883127D01*
X10148753Y-9006936D02*
X10158277Y-9016460D01*
X10158277Y-9016460D02*
X10148753Y-9025984D01*
X10148753Y-9025984D02*
X10139229Y-9016460D01*
X10139229Y-9016460D02*
X10148753Y-9006936D01*
X10148753Y-9006936D02*
X10148753Y-9025984D01*
X10282086Y-8825984D02*
X10301134Y-8825984D01*
X10301134Y-8825984D02*
X10320182Y-8835508D01*
X10320182Y-8835508D02*
X10329705Y-8845031D01*
X10329705Y-8845031D02*
X10339229Y-8864079D01*
X10339229Y-8864079D02*
X10348753Y-8902174D01*
X10348753Y-8902174D02*
X10348753Y-8949793D01*
X10348753Y-8949793D02*
X10339229Y-8987889D01*
X10339229Y-8987889D02*
X10329705Y-9006936D01*
X10329705Y-9006936D02*
X10320182Y-9016460D01*
X10320182Y-9016460D02*
X10301134Y-9025984D01*
X10301134Y-9025984D02*
X10282086Y-9025984D01*
X10282086Y-9025984D02*
X10263039Y-9016460D01*
X10263039Y-9016460D02*
X10253515Y-9006936D01*
X10253515Y-9006936D02*
X10243991Y-8987889D01*
X10243991Y-8987889D02*
X10234467Y-8949793D01*
X10234467Y-8949793D02*
X10234467Y-8902174D01*
X10234467Y-8902174D02*
X10243991Y-8864079D01*
X10243991Y-8864079D02*
X10253515Y-8845031D01*
X10253515Y-8845031D02*
X10263039Y-8835508D01*
X10263039Y-8835508D02*
X10282086Y-8825984D01*
X10472563Y-8825984D02*
X10491610Y-8825984D01*
X10491610Y-8825984D02*
X10510658Y-8835508D01*
X10510658Y-8835508D02*
X10520182Y-8845031D01*
X10520182Y-8845031D02*
X10529705Y-8864079D01*
X10529705Y-8864079D02*
X10539229Y-8902174D01*
X10539229Y-8902174D02*
X10539229Y-8949793D01*
X10539229Y-8949793D02*
X10529705Y-8987889D01*
X10529705Y-8987889D02*
X10520182Y-9006936D01*
X10520182Y-9006936D02*
X10510658Y-9016460D01*
X10510658Y-9016460D02*
X10491610Y-9025984D01*
X10491610Y-9025984D02*
X10472563Y-9025984D01*
X10472563Y-9025984D02*
X10453515Y-9016460D01*
X10453515Y-9016460D02*
X10443991Y-9006936D01*
X10443991Y-9006936D02*
X10434467Y-8987889D01*
X10434467Y-8987889D02*
X10424944Y-8949793D01*
X10424944Y-8949793D02*
X10424944Y-8902174D01*
X10424944Y-8902174D02*
X10434467Y-8864079D01*
X10434467Y-8864079D02*
X10443991Y-8845031D01*
X10443991Y-8845031D02*
X10453515Y-8835508D01*
X10453515Y-8835508D02*
X10472563Y-8825984D01*
X10663039Y-8825984D02*
X10682086Y-8825984D01*
X10682086Y-8825984D02*
X10701134Y-8835508D01*
X10701134Y-8835508D02*
X10710658Y-8845031D01*
X10710658Y-8845031D02*
X10720182Y-8864079D01*
X10720182Y-8864079D02*
X10729705Y-8902174D01*
X10729705Y-8902174D02*
X10729705Y-8949793D01*
X10729705Y-8949793D02*
X10720182Y-8987889D01*
X10720182Y-8987889D02*
X10710658Y-9006936D01*
X10710658Y-9006936D02*
X10701134Y-9016460D01*
X10701134Y-9016460D02*
X10682086Y-9025984D01*
X10682086Y-9025984D02*
X10663039Y-9025984D01*
X10663039Y-9025984D02*
X10643991Y-9016460D01*
X10643991Y-9016460D02*
X10634467Y-9006936D01*
X10634467Y-9006936D02*
X10624944Y-8987889D01*
X10624944Y-8987889D02*
X10615420Y-8949793D01*
X10615420Y-8949793D02*
X10615420Y-8902174D01*
X10615420Y-8902174D02*
X10624944Y-8864079D01*
X10624944Y-8864079D02*
X10634467Y-8845031D01*
X10634467Y-8845031D02*
X10643991Y-8835508D01*
X10643991Y-8835508D02*
X10663039Y-8825984D01*
X10815420Y-9025984D02*
X10815420Y-8892650D01*
X10815420Y-8911698D02*
X10824944Y-8902174D01*
X10824944Y-8902174D02*
X10843991Y-8892650D01*
X10843991Y-8892650D02*
X10872563Y-8892650D01*
X10872563Y-8892650D02*
X10891610Y-8902174D01*
X10891610Y-8902174D02*
X10901134Y-8921222D01*
X10901134Y-8921222D02*
X10901134Y-9025984D01*
X10901134Y-8921222D02*
X10910658Y-8902174D01*
X10910658Y-8902174D02*
X10929705Y-8892650D01*
X10929705Y-8892650D02*
X10958277Y-8892650D01*
X10958277Y-8892650D02*
X10977325Y-8902174D01*
X10977325Y-8902174D02*
X10986848Y-8921222D01*
X10986848Y-8921222D02*
X10986848Y-9025984D01*
X11082086Y-9025984D02*
X11082086Y-8892650D01*
X11082086Y-8911698D02*
X11091610Y-8902174D01*
X11091610Y-8902174D02*
X11110658Y-8892650D01*
X11110658Y-8892650D02*
X11139229Y-8892650D01*
X11139229Y-8892650D02*
X11158277Y-8902174D01*
X11158277Y-8902174D02*
X11167801Y-8921222D01*
X11167801Y-8921222D02*
X11167801Y-9025984D01*
X11167801Y-8921222D02*
X11177325Y-8902174D01*
X11177325Y-8902174D02*
X11196372Y-8892650D01*
X11196372Y-8892650D02*
X11224943Y-8892650D01*
X11224943Y-8892650D02*
X11243991Y-8902174D01*
X11243991Y-8902174D02*
X11253515Y-8921222D01*
X11253515Y-8921222D02*
X11253515Y-9025984D01*
X11643991Y-8816460D02*
X11472563Y-9073603D01*
X11901134Y-8825984D02*
X11920182Y-8825984D01*
X11920182Y-8825984D02*
X11939229Y-8835508D01*
X11939229Y-8835508D02*
X11948753Y-8845031D01*
X11948753Y-8845031D02*
X11958277Y-8864079D01*
X11958277Y-8864079D02*
X11967801Y-8902174D01*
X11967801Y-8902174D02*
X11967801Y-8949793D01*
X11967801Y-8949793D02*
X11958277Y-8987889D01*
X11958277Y-8987889D02*
X11948753Y-9006936D01*
X11948753Y-9006936D02*
X11939229Y-9016460D01*
X11939229Y-9016460D02*
X11920182Y-9025984D01*
X11920182Y-9025984D02*
X11901134Y-9025984D01*
X11901134Y-9025984D02*
X11882086Y-9016460D01*
X11882086Y-9016460D02*
X11872563Y-9006936D01*
X11872563Y-9006936D02*
X11863039Y-8987889D01*
X11863039Y-8987889D02*
X11853515Y-8949793D01*
X11853515Y-8949793D02*
X11853515Y-8902174D01*
X11853515Y-8902174D02*
X11863039Y-8864079D01*
X11863039Y-8864079D02*
X11872563Y-8845031D01*
X11872563Y-8845031D02*
X11882086Y-8835508D01*
X11882086Y-8835508D02*
X11901134Y-8825984D01*
X12053515Y-9006936D02*
X12063039Y-9016460D01*
X12063039Y-9016460D02*
X12053515Y-9025984D01*
X12053515Y-9025984D02*
X12043991Y-9016460D01*
X12043991Y-9016460D02*
X12053515Y-9006936D01*
X12053515Y-9006936D02*
X12053515Y-9025984D01*
X12186848Y-8825984D02*
X12205896Y-8825984D01*
X12205896Y-8825984D02*
X12224944Y-8835508D01*
X12224944Y-8835508D02*
X12234467Y-8845031D01*
X12234467Y-8845031D02*
X12243991Y-8864079D01*
X12243991Y-8864079D02*
X12253515Y-8902174D01*
X12253515Y-8902174D02*
X12253515Y-8949793D01*
X12253515Y-8949793D02*
X12243991Y-8987889D01*
X12243991Y-8987889D02*
X12234467Y-9006936D01*
X12234467Y-9006936D02*
X12224944Y-9016460D01*
X12224944Y-9016460D02*
X12205896Y-9025984D01*
X12205896Y-9025984D02*
X12186848Y-9025984D01*
X12186848Y-9025984D02*
X12167801Y-9016460D01*
X12167801Y-9016460D02*
X12158277Y-9006936D01*
X12158277Y-9006936D02*
X12148753Y-8987889D01*
X12148753Y-8987889D02*
X12139229Y-8949793D01*
X12139229Y-8949793D02*
X12139229Y-8902174D01*
X12139229Y-8902174D02*
X12148753Y-8864079D01*
X12148753Y-8864079D02*
X12158277Y-8845031D01*
X12158277Y-8845031D02*
X12167801Y-8835508D01*
X12167801Y-8835508D02*
X12186848Y-8825984D01*
X12320182Y-8825984D02*
X12443991Y-8825984D01*
X12443991Y-8825984D02*
X12377325Y-8902174D01*
X12377325Y-8902174D02*
X12405896Y-8902174D01*
X12405896Y-8902174D02*
X12424944Y-8911698D01*
X12424944Y-8911698D02*
X12434467Y-8921222D01*
X12434467Y-8921222D02*
X12443991Y-8940270D01*
X12443991Y-8940270D02*
X12443991Y-8987889D01*
X12443991Y-8987889D02*
X12434467Y-9006936D01*
X12434467Y-9006936D02*
X12424944Y-9016460D01*
X12424944Y-9016460D02*
X12405896Y-9025984D01*
X12405896Y-9025984D02*
X12348753Y-9025984D01*
X12348753Y-9025984D02*
X12329706Y-9016460D01*
X12329706Y-9016460D02*
X12320182Y-9006936D01*
X12539229Y-9025984D02*
X12577325Y-9025984D01*
X12577325Y-9025984D02*
X12596372Y-9016460D01*
X12596372Y-9016460D02*
X12605896Y-9006936D01*
X12605896Y-9006936D02*
X12624944Y-8978365D01*
X12624944Y-8978365D02*
X12634467Y-8940270D01*
X12634467Y-8940270D02*
X12634467Y-8864079D01*
X12634467Y-8864079D02*
X12624944Y-8845031D01*
X12624944Y-8845031D02*
X12615420Y-8835508D01*
X12615420Y-8835508D02*
X12596372Y-8825984D01*
X12596372Y-8825984D02*
X12558277Y-8825984D01*
X12558277Y-8825984D02*
X12539229Y-8835508D01*
X12539229Y-8835508D02*
X12529706Y-8845031D01*
X12529706Y-8845031D02*
X12520182Y-8864079D01*
X12520182Y-8864079D02*
X12520182Y-8911698D01*
X12520182Y-8911698D02*
X12529706Y-8930746D01*
X12529706Y-8930746D02*
X12539229Y-8940270D01*
X12539229Y-8940270D02*
X12558277Y-8949793D01*
X12558277Y-8949793D02*
X12596372Y-8949793D01*
X12596372Y-8949793D02*
X12615420Y-8940270D01*
X12615420Y-8940270D02*
X12624944Y-8930746D01*
X12624944Y-8930746D02*
X12634467Y-8911698D01*
X12805896Y-8892650D02*
X12805896Y-9025984D01*
X12758277Y-8816460D02*
X12710658Y-8959317D01*
X12710658Y-8959317D02*
X12834467Y-8959317D01*
X12901134Y-8825984D02*
X12901134Y-8864079D01*
X12977325Y-8825984D02*
X12977325Y-8864079D01*
X13272563Y-9102174D02*
X13263039Y-9092650D01*
X13263039Y-9092650D02*
X13243991Y-9064079D01*
X13243991Y-9064079D02*
X13234468Y-9045031D01*
X13234468Y-9045031D02*
X13224944Y-9016460D01*
X13224944Y-9016460D02*
X13215420Y-8968841D01*
X13215420Y-8968841D02*
X13215420Y-8930746D01*
X13215420Y-8930746D02*
X13224944Y-8883127D01*
X13224944Y-8883127D02*
X13234468Y-8854555D01*
X13234468Y-8854555D02*
X13243991Y-8835508D01*
X13243991Y-8835508D02*
X13263039Y-8806936D01*
X13263039Y-8806936D02*
X13272563Y-8797412D01*
X13434468Y-8892650D02*
X13434468Y-9025984D01*
X13386848Y-8816460D02*
X13339229Y-8959317D01*
X13339229Y-8959317D02*
X13463039Y-8959317D01*
X13529706Y-8845031D02*
X13539229Y-8835508D01*
X13539229Y-8835508D02*
X13558277Y-8825984D01*
X13558277Y-8825984D02*
X13605896Y-8825984D01*
X13605896Y-8825984D02*
X13624944Y-8835508D01*
X13624944Y-8835508D02*
X13634468Y-8845031D01*
X13634468Y-8845031D02*
X13643991Y-8864079D01*
X13643991Y-8864079D02*
X13643991Y-8883127D01*
X13643991Y-8883127D02*
X13634468Y-8911698D01*
X13634468Y-8911698D02*
X13520182Y-9025984D01*
X13520182Y-9025984D02*
X13643991Y-9025984D01*
X13882087Y-9025984D02*
X13882087Y-8825984D01*
X13967801Y-9025984D02*
X13967801Y-8921222D01*
X13967801Y-8921222D02*
X13958277Y-8902174D01*
X13958277Y-8902174D02*
X13939230Y-8892650D01*
X13939230Y-8892650D02*
X13910658Y-8892650D01*
X13910658Y-8892650D02*
X13891610Y-8902174D01*
X13891610Y-8902174D02*
X13882087Y-8911698D01*
X14091610Y-9025984D02*
X14072563Y-9016460D01*
X14072563Y-9016460D02*
X14063039Y-9006936D01*
X14063039Y-9006936D02*
X14053515Y-8987889D01*
X14053515Y-8987889D02*
X14053515Y-8930746D01*
X14053515Y-8930746D02*
X14063039Y-8911698D01*
X14063039Y-8911698D02*
X14072563Y-8902174D01*
X14072563Y-8902174D02*
X14091610Y-8892650D01*
X14091610Y-8892650D02*
X14120182Y-8892650D01*
X14120182Y-8892650D02*
X14139230Y-8902174D01*
X14139230Y-8902174D02*
X14148753Y-8911698D01*
X14148753Y-8911698D02*
X14158277Y-8930746D01*
X14158277Y-8930746D02*
X14158277Y-8987889D01*
X14158277Y-8987889D02*
X14148753Y-9006936D01*
X14148753Y-9006936D02*
X14139230Y-9016460D01*
X14139230Y-9016460D02*
X14120182Y-9025984D01*
X14120182Y-9025984D02*
X14091610Y-9025984D01*
X14272563Y-9025984D02*
X14253515Y-9016460D01*
X14253515Y-9016460D02*
X14243991Y-8997412D01*
X14243991Y-8997412D02*
X14243991Y-8825984D01*
X14424944Y-9016460D02*
X14405896Y-9025984D01*
X14405896Y-9025984D02*
X14367801Y-9025984D01*
X14367801Y-9025984D02*
X14348753Y-9016460D01*
X14348753Y-9016460D02*
X14339230Y-8997412D01*
X14339230Y-8997412D02*
X14339230Y-8921222D01*
X14339230Y-8921222D02*
X14348753Y-8902174D01*
X14348753Y-8902174D02*
X14367801Y-8892650D01*
X14367801Y-8892650D02*
X14405896Y-8892650D01*
X14405896Y-8892650D02*
X14424944Y-8902174D01*
X14424944Y-8902174D02*
X14434468Y-8921222D01*
X14434468Y-8921222D02*
X14434468Y-8940270D01*
X14434468Y-8940270D02*
X14339230Y-8959317D01*
X14510658Y-9016460D02*
X14529706Y-9025984D01*
X14529706Y-9025984D02*
X14567801Y-9025984D01*
X14567801Y-9025984D02*
X14586849Y-9016460D01*
X14586849Y-9016460D02*
X14596372Y-8997412D01*
X14596372Y-8997412D02*
X14596372Y-8987889D01*
X14596372Y-8987889D02*
X14586849Y-8968841D01*
X14586849Y-8968841D02*
X14567801Y-8959317D01*
X14567801Y-8959317D02*
X14539230Y-8959317D01*
X14539230Y-8959317D02*
X14520182Y-8949793D01*
X14520182Y-8949793D02*
X14510658Y-8930746D01*
X14510658Y-8930746D02*
X14510658Y-8921222D01*
X14510658Y-8921222D02*
X14520182Y-8902174D01*
X14520182Y-8902174D02*
X14539230Y-8892650D01*
X14539230Y-8892650D02*
X14567801Y-8892650D01*
X14567801Y-8892650D02*
X14586849Y-8902174D01*
X14663039Y-9102174D02*
X14672563Y-9092650D01*
X14672563Y-9092650D02*
X14691611Y-9064079D01*
X14691611Y-9064079D02*
X14701134Y-9045031D01*
X14701134Y-9045031D02*
X14710658Y-9016460D01*
X14710658Y-9016460D02*
X14720182Y-8968841D01*
X14720182Y-8968841D02*
X14720182Y-8930746D01*
X14720182Y-8930746D02*
X14710658Y-8883127D01*
X14710658Y-8883127D02*
X14701134Y-8854555D01*
X14701134Y-8854555D02*
X14691611Y-8835508D01*
X14691611Y-8835508D02*
X14672563Y-8806936D01*
X14672563Y-8806936D02*
X14663039Y-8797412D01*
D13*
X9620030Y-9275970D02*
X9697500Y-9198500D01*
X9620030Y-9121030D01*
X9542560Y-9198500D01*
X9620030Y-9275970D01*
D11*
X10063039Y-9289984D02*
X9948753Y-9289984D01*
X10005896Y-9289984D02*
X10005896Y-9089984D01*
X10005896Y-9089984D02*
X9986848Y-9118555D01*
X9986848Y-9118555D02*
X9967801Y-9137603D01*
X9967801Y-9137603D02*
X9948753Y-9147127D01*
X10148753Y-9270936D02*
X10158277Y-9280460D01*
X10158277Y-9280460D02*
X10148753Y-9289984D01*
X10148753Y-9289984D02*
X10139229Y-9280460D01*
X10139229Y-9280460D02*
X10148753Y-9270936D01*
X10148753Y-9270936D02*
X10148753Y-9289984D01*
X10339229Y-9089984D02*
X10243991Y-9089984D01*
X10243991Y-9089984D02*
X10234467Y-9185222D01*
X10234467Y-9185222D02*
X10243991Y-9175698D01*
X10243991Y-9175698D02*
X10263039Y-9166174D01*
X10263039Y-9166174D02*
X10310658Y-9166174D01*
X10310658Y-9166174D02*
X10329705Y-9175698D01*
X10329705Y-9175698D02*
X10339229Y-9185222D01*
X10339229Y-9185222D02*
X10348753Y-9204270D01*
X10348753Y-9204270D02*
X10348753Y-9251889D01*
X10348753Y-9251889D02*
X10339229Y-9270936D01*
X10339229Y-9270936D02*
X10329705Y-9280460D01*
X10329705Y-9280460D02*
X10310658Y-9289984D01*
X10310658Y-9289984D02*
X10263039Y-9289984D01*
X10263039Y-9289984D02*
X10243991Y-9280460D01*
X10243991Y-9280460D02*
X10234467Y-9270936D01*
X10520182Y-9156650D02*
X10520182Y-9289984D01*
X10472563Y-9080460D02*
X10424944Y-9223317D01*
X10424944Y-9223317D02*
X10548753Y-9223317D01*
X10634467Y-9289984D02*
X10672563Y-9289984D01*
X10672563Y-9289984D02*
X10691610Y-9280460D01*
X10691610Y-9280460D02*
X10701134Y-9270936D01*
X10701134Y-9270936D02*
X10720182Y-9242365D01*
X10720182Y-9242365D02*
X10729705Y-9204270D01*
X10729705Y-9204270D02*
X10729705Y-9128079D01*
X10729705Y-9128079D02*
X10720182Y-9109031D01*
X10720182Y-9109031D02*
X10710658Y-9099508D01*
X10710658Y-9099508D02*
X10691610Y-9089984D01*
X10691610Y-9089984D02*
X10653515Y-9089984D01*
X10653515Y-9089984D02*
X10634467Y-9099508D01*
X10634467Y-9099508D02*
X10624944Y-9109031D01*
X10624944Y-9109031D02*
X10615420Y-9128079D01*
X10615420Y-9128079D02*
X10615420Y-9175698D01*
X10615420Y-9175698D02*
X10624944Y-9194746D01*
X10624944Y-9194746D02*
X10634467Y-9204270D01*
X10634467Y-9204270D02*
X10653515Y-9213793D01*
X10653515Y-9213793D02*
X10691610Y-9213793D01*
X10691610Y-9213793D02*
X10710658Y-9204270D01*
X10710658Y-9204270D02*
X10720182Y-9194746D01*
X10720182Y-9194746D02*
X10729705Y-9175698D01*
X10815420Y-9289984D02*
X10815420Y-9156650D01*
X10815420Y-9175698D02*
X10824944Y-9166174D01*
X10824944Y-9166174D02*
X10843991Y-9156650D01*
X10843991Y-9156650D02*
X10872563Y-9156650D01*
X10872563Y-9156650D02*
X10891610Y-9166174D01*
X10891610Y-9166174D02*
X10901134Y-9185222D01*
X10901134Y-9185222D02*
X10901134Y-9289984D01*
X10901134Y-9185222D02*
X10910658Y-9166174D01*
X10910658Y-9166174D02*
X10929705Y-9156650D01*
X10929705Y-9156650D02*
X10958277Y-9156650D01*
X10958277Y-9156650D02*
X10977325Y-9166174D01*
X10977325Y-9166174D02*
X10986848Y-9185222D01*
X10986848Y-9185222D02*
X10986848Y-9289984D01*
X11082086Y-9289984D02*
X11082086Y-9156650D01*
X11082086Y-9175698D02*
X11091610Y-9166174D01*
X11091610Y-9166174D02*
X11110658Y-9156650D01*
X11110658Y-9156650D02*
X11139229Y-9156650D01*
X11139229Y-9156650D02*
X11158277Y-9166174D01*
X11158277Y-9166174D02*
X11167801Y-9185222D01*
X11167801Y-9185222D02*
X11167801Y-9289984D01*
X11167801Y-9185222D02*
X11177325Y-9166174D01*
X11177325Y-9166174D02*
X11196372Y-9156650D01*
X11196372Y-9156650D02*
X11224943Y-9156650D01*
X11224943Y-9156650D02*
X11243991Y-9166174D01*
X11243991Y-9166174D02*
X11253515Y-9185222D01*
X11253515Y-9185222D02*
X11253515Y-9289984D01*
X11643991Y-9080460D02*
X11472563Y-9337603D01*
X11901134Y-9089984D02*
X11920182Y-9089984D01*
X11920182Y-9089984D02*
X11939229Y-9099508D01*
X11939229Y-9099508D02*
X11948753Y-9109031D01*
X11948753Y-9109031D02*
X11958277Y-9128079D01*
X11958277Y-9128079D02*
X11967801Y-9166174D01*
X11967801Y-9166174D02*
X11967801Y-9213793D01*
X11967801Y-9213793D02*
X11958277Y-9251889D01*
X11958277Y-9251889D02*
X11948753Y-9270936D01*
X11948753Y-9270936D02*
X11939229Y-9280460D01*
X11939229Y-9280460D02*
X11920182Y-9289984D01*
X11920182Y-9289984D02*
X11901134Y-9289984D01*
X11901134Y-9289984D02*
X11882086Y-9280460D01*
X11882086Y-9280460D02*
X11872563Y-9270936D01*
X11872563Y-9270936D02*
X11863039Y-9251889D01*
X11863039Y-9251889D02*
X11853515Y-9213793D01*
X11853515Y-9213793D02*
X11853515Y-9166174D01*
X11853515Y-9166174D02*
X11863039Y-9128079D01*
X11863039Y-9128079D02*
X11872563Y-9109031D01*
X11872563Y-9109031D02*
X11882086Y-9099508D01*
X11882086Y-9099508D02*
X11901134Y-9089984D01*
X12053515Y-9270936D02*
X12063039Y-9280460D01*
X12063039Y-9280460D02*
X12053515Y-9289984D01*
X12053515Y-9289984D02*
X12043991Y-9280460D01*
X12043991Y-9280460D02*
X12053515Y-9270936D01*
X12053515Y-9270936D02*
X12053515Y-9289984D01*
X12186848Y-9089984D02*
X12205896Y-9089984D01*
X12205896Y-9089984D02*
X12224944Y-9099508D01*
X12224944Y-9099508D02*
X12234467Y-9109031D01*
X12234467Y-9109031D02*
X12243991Y-9128079D01*
X12243991Y-9128079D02*
X12253515Y-9166174D01*
X12253515Y-9166174D02*
X12253515Y-9213793D01*
X12253515Y-9213793D02*
X12243991Y-9251889D01*
X12243991Y-9251889D02*
X12234467Y-9270936D01*
X12234467Y-9270936D02*
X12224944Y-9280460D01*
X12224944Y-9280460D02*
X12205896Y-9289984D01*
X12205896Y-9289984D02*
X12186848Y-9289984D01*
X12186848Y-9289984D02*
X12167801Y-9280460D01*
X12167801Y-9280460D02*
X12158277Y-9270936D01*
X12158277Y-9270936D02*
X12148753Y-9251889D01*
X12148753Y-9251889D02*
X12139229Y-9213793D01*
X12139229Y-9213793D02*
X12139229Y-9166174D01*
X12139229Y-9166174D02*
X12148753Y-9128079D01*
X12148753Y-9128079D02*
X12158277Y-9109031D01*
X12158277Y-9109031D02*
X12167801Y-9099508D01*
X12167801Y-9099508D02*
X12186848Y-9089984D01*
X12424944Y-9089984D02*
X12386848Y-9089984D01*
X12386848Y-9089984D02*
X12367801Y-9099508D01*
X12367801Y-9099508D02*
X12358277Y-9109031D01*
X12358277Y-9109031D02*
X12339229Y-9137603D01*
X12339229Y-9137603D02*
X12329706Y-9175698D01*
X12329706Y-9175698D02*
X12329706Y-9251889D01*
X12329706Y-9251889D02*
X12339229Y-9270936D01*
X12339229Y-9270936D02*
X12348753Y-9280460D01*
X12348753Y-9280460D02*
X12367801Y-9289984D01*
X12367801Y-9289984D02*
X12405896Y-9289984D01*
X12405896Y-9289984D02*
X12424944Y-9280460D01*
X12424944Y-9280460D02*
X12434467Y-9270936D01*
X12434467Y-9270936D02*
X12443991Y-9251889D01*
X12443991Y-9251889D02*
X12443991Y-9204270D01*
X12443991Y-9204270D02*
X12434467Y-9185222D01*
X12434467Y-9185222D02*
X12424944Y-9175698D01*
X12424944Y-9175698D02*
X12405896Y-9166174D01*
X12405896Y-9166174D02*
X12367801Y-9166174D01*
X12367801Y-9166174D02*
X12348753Y-9175698D01*
X12348753Y-9175698D02*
X12339229Y-9185222D01*
X12339229Y-9185222D02*
X12329706Y-9204270D01*
X12634467Y-9289984D02*
X12520182Y-9289984D01*
X12577325Y-9289984D02*
X12577325Y-9089984D01*
X12577325Y-9089984D02*
X12558277Y-9118555D01*
X12558277Y-9118555D02*
X12539229Y-9137603D01*
X12539229Y-9137603D02*
X12520182Y-9147127D01*
X12758277Y-9089984D02*
X12777325Y-9089984D01*
X12777325Y-9089984D02*
X12796372Y-9099508D01*
X12796372Y-9099508D02*
X12805896Y-9109031D01*
X12805896Y-9109031D02*
X12815420Y-9128079D01*
X12815420Y-9128079D02*
X12824944Y-9166174D01*
X12824944Y-9166174D02*
X12824944Y-9213793D01*
X12824944Y-9213793D02*
X12815420Y-9251889D01*
X12815420Y-9251889D02*
X12805896Y-9270936D01*
X12805896Y-9270936D02*
X12796372Y-9280460D01*
X12796372Y-9280460D02*
X12777325Y-9289984D01*
X12777325Y-9289984D02*
X12758277Y-9289984D01*
X12758277Y-9289984D02*
X12739229Y-9280460D01*
X12739229Y-9280460D02*
X12729706Y-9270936D01*
X12729706Y-9270936D02*
X12720182Y-9251889D01*
X12720182Y-9251889D02*
X12710658Y-9213793D01*
X12710658Y-9213793D02*
X12710658Y-9166174D01*
X12710658Y-9166174D02*
X12720182Y-9128079D01*
X12720182Y-9128079D02*
X12729706Y-9109031D01*
X12729706Y-9109031D02*
X12739229Y-9099508D01*
X12739229Y-9099508D02*
X12758277Y-9089984D01*
X12901134Y-9089984D02*
X12901134Y-9128079D01*
X12977325Y-9089984D02*
X12977325Y-9128079D01*
X13272563Y-9366174D02*
X13263039Y-9356650D01*
X13263039Y-9356650D02*
X13243991Y-9328079D01*
X13243991Y-9328079D02*
X13234468Y-9309031D01*
X13234468Y-9309031D02*
X13224944Y-9280460D01*
X13224944Y-9280460D02*
X13215420Y-9232841D01*
X13215420Y-9232841D02*
X13215420Y-9194746D01*
X13215420Y-9194746D02*
X13224944Y-9147127D01*
X13224944Y-9147127D02*
X13234468Y-9118555D01*
X13234468Y-9118555D02*
X13243991Y-9099508D01*
X13243991Y-9099508D02*
X13263039Y-9070936D01*
X13263039Y-9070936D02*
X13272563Y-9061412D01*
X13329706Y-9089984D02*
X13453515Y-9089984D01*
X13453515Y-9089984D02*
X13386848Y-9166174D01*
X13386848Y-9166174D02*
X13415420Y-9166174D01*
X13415420Y-9166174D02*
X13434468Y-9175698D01*
X13434468Y-9175698D02*
X13443991Y-9185222D01*
X13443991Y-9185222D02*
X13453515Y-9204270D01*
X13453515Y-9204270D02*
X13453515Y-9251889D01*
X13453515Y-9251889D02*
X13443991Y-9270936D01*
X13443991Y-9270936D02*
X13434468Y-9280460D01*
X13434468Y-9280460D02*
X13415420Y-9289984D01*
X13415420Y-9289984D02*
X13358277Y-9289984D01*
X13358277Y-9289984D02*
X13339229Y-9280460D01*
X13339229Y-9280460D02*
X13329706Y-9270936D01*
X13691610Y-9289984D02*
X13691610Y-9089984D01*
X13777325Y-9289984D02*
X13777325Y-9185222D01*
X13777325Y-9185222D02*
X13767801Y-9166174D01*
X13767801Y-9166174D02*
X13748753Y-9156650D01*
X13748753Y-9156650D02*
X13720182Y-9156650D01*
X13720182Y-9156650D02*
X13701134Y-9166174D01*
X13701134Y-9166174D02*
X13691610Y-9175698D01*
X13901134Y-9289984D02*
X13882087Y-9280460D01*
X13882087Y-9280460D02*
X13872563Y-9270936D01*
X13872563Y-9270936D02*
X13863039Y-9251889D01*
X13863039Y-9251889D02*
X13863039Y-9194746D01*
X13863039Y-9194746D02*
X13872563Y-9175698D01*
X13872563Y-9175698D02*
X13882087Y-9166174D01*
X13882087Y-9166174D02*
X13901134Y-9156650D01*
X13901134Y-9156650D02*
X13929706Y-9156650D01*
X13929706Y-9156650D02*
X13948753Y-9166174D01*
X13948753Y-9166174D02*
X13958277Y-9175698D01*
X13958277Y-9175698D02*
X13967801Y-9194746D01*
X13967801Y-9194746D02*
X13967801Y-9251889D01*
X13967801Y-9251889D02*
X13958277Y-9270936D01*
X13958277Y-9270936D02*
X13948753Y-9280460D01*
X13948753Y-9280460D02*
X13929706Y-9289984D01*
X13929706Y-9289984D02*
X13901134Y-9289984D01*
X14082087Y-9289984D02*
X14063039Y-9280460D01*
X14063039Y-9280460D02*
X14053515Y-9261412D01*
X14053515Y-9261412D02*
X14053515Y-9089984D01*
X14234468Y-9280460D02*
X14215420Y-9289984D01*
X14215420Y-9289984D02*
X14177325Y-9289984D01*
X14177325Y-9289984D02*
X14158277Y-9280460D01*
X14158277Y-9280460D02*
X14148753Y-9261412D01*
X14148753Y-9261412D02*
X14148753Y-9185222D01*
X14148753Y-9185222D02*
X14158277Y-9166174D01*
X14158277Y-9166174D02*
X14177325Y-9156650D01*
X14177325Y-9156650D02*
X14215420Y-9156650D01*
X14215420Y-9156650D02*
X14234468Y-9166174D01*
X14234468Y-9166174D02*
X14243991Y-9185222D01*
X14243991Y-9185222D02*
X14243991Y-9204270D01*
X14243991Y-9204270D02*
X14148753Y-9223317D01*
X14320182Y-9280460D02*
X14339230Y-9289984D01*
X14339230Y-9289984D02*
X14377325Y-9289984D01*
X14377325Y-9289984D02*
X14396372Y-9280460D01*
X14396372Y-9280460D02*
X14405896Y-9261412D01*
X14405896Y-9261412D02*
X14405896Y-9251889D01*
X14405896Y-9251889D02*
X14396372Y-9232841D01*
X14396372Y-9232841D02*
X14377325Y-9223317D01*
X14377325Y-9223317D02*
X14348753Y-9223317D01*
X14348753Y-9223317D02*
X14329706Y-9213793D01*
X14329706Y-9213793D02*
X14320182Y-9194746D01*
X14320182Y-9194746D02*
X14320182Y-9185222D01*
X14320182Y-9185222D02*
X14329706Y-9166174D01*
X14329706Y-9166174D02*
X14348753Y-9156650D01*
X14348753Y-9156650D02*
X14377325Y-9156650D01*
X14377325Y-9156650D02*
X14396372Y-9166174D01*
X14472563Y-9366174D02*
X14482087Y-9356650D01*
X14482087Y-9356650D02*
X14501134Y-9328079D01*
X14501134Y-9328079D02*
X14510658Y-9309031D01*
X14510658Y-9309031D02*
X14520182Y-9280460D01*
X14520182Y-9280460D02*
X14529706Y-9232841D01*
X14529706Y-9232841D02*
X14529706Y-9194746D01*
X14529706Y-9194746D02*
X14520182Y-9147127D01*
X14520182Y-9147127D02*
X14510658Y-9118555D01*
X14510658Y-9118555D02*
X14501134Y-9099508D01*
X14501134Y-9099508D02*
X14482087Y-9070936D01*
X14482087Y-9070936D02*
X14472563Y-9061412D01*
M02*
