%TF.GenerationSoftware,KiCad,Pcbnew,9.0.7*%
%TF.CreationDate,2026-02-18T23:20:23-03:00*%
%TF.ProjectId,OmegaKit_ESP_Embarcado_Simplificado,4f6d6567-614b-4697-945f-4553505f456d,rev?*%
%TF.SameCoordinates,Original*%
%TF.FileFunction,Soldermask,Bot*%
%TF.FilePolarity,Negative*%
%FSLAX46Y46*%
G04 Gerber Fmt 4.6, Leading zero omitted, Abs format (unit mm)*
G04 Created by KiCad (PCBNEW 9.0.7) date 2026-02-18 23:20:23*
%MOMM*%
%LPD*%
G01*
G04 APERTURE LIST*
%ADD10C,2.057400*%
%ADD11R,1.700000X1.700000*%
%ADD12C,1.700000*%
%ADD13C,2.100000*%
%ADD14C,2.134400*%
G04 APERTURE END LIST*
D10*
%TO.C,SW3*%
X114500000Y-71000000D03*
X109801000Y-71000000D03*
X105102000Y-71000000D03*
%TD*%
D11*
%TO.C,S32*%
X140920000Y-41000000D03*
D12*
X143460000Y-41000000D03*
X146000000Y-41000000D03*
%TD*%
D11*
%TO.C,S25*%
X104920000Y-41000000D03*
D12*
X107460000Y-41000000D03*
X110000000Y-41000000D03*
%TD*%
D11*
%TO.C,Q34*%
X158920000Y-41000000D03*
D12*
X161460000Y-41000000D03*
X164000000Y-41000000D03*
%TD*%
D13*
%TO.C,REF\u002A\u002A*%
X170500000Y-72000000D03*
%TD*%
D11*
%TO.C,S33*%
X131920000Y-41000000D03*
D12*
X134460000Y-41000000D03*
X137000000Y-41000000D03*
%TD*%
D11*
%TO.C,SERVO4*%
X148960000Y-71500000D03*
D12*
X151500000Y-71500000D03*
X154040000Y-71500000D03*
%TD*%
D13*
%TO.C,REF\u002A\u002A*%
X100000000Y-72000000D03*
%TD*%
D11*
%TO.C,SERVO16*%
X158920000Y-71500000D03*
D12*
X161460000Y-71500000D03*
X164000000Y-71500000D03*
%TD*%
D11*
%TO.C,J13*%
X121500000Y-71500000D03*
D12*
X118960000Y-71500000D03*
%TD*%
D11*
%TO.C,J5*%
X125195000Y-71500000D03*
D12*
X127735000Y-71500000D03*
%TD*%
D11*
%TO.C,S26*%
X122920000Y-41000000D03*
D12*
X125460000Y-41000000D03*
X128000000Y-41000000D03*
%TD*%
D11*
%TO.C,UART_SOCKET1*%
X134000000Y-49650000D03*
D12*
X134000000Y-52190000D03*
X134000000Y-54730000D03*
X134000000Y-57270000D03*
X134000000Y-59810000D03*
X134000000Y-62350000D03*
%TD*%
D11*
%TO.C,Q35*%
X149920000Y-41000000D03*
D12*
X152460000Y-41000000D03*
X155000000Y-41000000D03*
%TD*%
D13*
%TO.C,REF\u002A\u002A*%
X170500000Y-41500000D03*
%TD*%
D11*
%TO.C,S27*%
X113920000Y-41000000D03*
D12*
X116460000Y-41000000D03*
X119000000Y-41000000D03*
%TD*%
D13*
%TO.C,REF\u002A\u002A*%
X100000000Y-41500000D03*
%TD*%
D14*
%TO.C,IR13*%
X138960000Y-71508410D03*
X141500000Y-71508410D03*
X144040000Y-71508410D03*
%TD*%
D11*
%TO.C,J2*%
X134000000Y-71500000D03*
D12*
X131460000Y-71500000D03*
%TD*%
M02*
