%TF.GenerationSoftware,KiCad,Pcbnew,9.0.7*%
%TF.CreationDate,2026-02-18T23:20:23-03:00*%
%TF.ProjectId,OmegaKit_ESP_Embarcado_Simplificado,4f6d6567-614b-4697-945f-4553505f456d,rev?*%
%TF.SameCoordinates,Original*%
%TF.FileFunction,Soldermask,Top*%
%TF.FilePolarity,Negative*%
%FSLAX46Y46*%
G04 Gerber Fmt 4.6, Leading zero omitted, Abs format (unit mm)*
G04 Created by KiCad (PCBNEW 9.0.7) date 2026-02-18 23:20:23*
%MOMM*%
%LPD*%
G01*
G04 APERTURE LIST*
G04 Aperture macros list*
%AMRoundRect*
0 Rectangle with rounded corners*
0 $1 Rounding radius*
0 $2 $3 $4 $5 $6 $7 $8 $9 X,Y pos of 4 corners*
0 Add a 4 corners polygon primitive as box body*
4,1,4,$2,$3,$4,$5,$6,$7,$8,$9,$2,$3,0*
0 Add four circle primitives for the rounded corners*
1,1,$1+$1,$2,$3*
1,1,$1+$1,$4,$5*
1,1,$1+$1,$6,$7*
1,1,$1+$1,$8,$9*
0 Add four rect primitives between the rounded corners*
20,1,$1+$1,$2,$3,$4,$5,0*
20,1,$1+$1,$4,$5,$6,$7,0*
20,1,$1+$1,$6,$7,$8,$9,0*
20,1,$1+$1,$8,$9,$2,$3,0*%
G04 Aperture macros list end*
%ADD10RoundRect,0.250000X0.325000X0.450000X-0.325000X0.450000X-0.325000X-0.450000X0.325000X-0.450000X0*%
%ADD11C,2.057400*%
%ADD12R,1.700000X1.700000*%
%ADD13C,1.700000*%
%ADD14R,1.244600X1.244600*%
%ADD15RoundRect,0.100000X-0.217500X-0.100000X0.217500X-0.100000X0.217500X0.100000X-0.217500X0.100000X0*%
%ADD16RoundRect,0.250000X-0.350000X-0.450000X0.350000X-0.450000X0.350000X0.450000X-0.350000X0.450000X0*%
%ADD17C,2.100000*%
%ADD18RoundRect,0.250000X1.075000X0.550000X-1.075000X0.550000X-1.075000X-0.550000X1.075000X-0.550000X0*%
%ADD19R,0.900000X1.500000*%
%ADD20R,1.500000X0.900000*%
%ADD21C,0.600000*%
%ADD22R,4.200000X4.200000*%
%ADD23RoundRect,0.250000X-0.325000X-0.450000X0.325000X-0.450000X0.325000X0.450000X-0.325000X0.450000X0*%
%ADD24RoundRect,0.100000X0.100000X-0.217500X0.100000X0.217500X-0.100000X0.217500X-0.100000X-0.217500X0*%
%ADD25RoundRect,0.237500X0.250000X0.237500X-0.250000X0.237500X-0.250000X-0.237500X0.250000X-0.237500X0*%
%ADD26RoundRect,0.250000X-0.450000X0.350000X-0.450000X-0.350000X0.450000X-0.350000X0.450000X0.350000X0*%
%ADD27RoundRect,0.237500X-0.237500X0.300000X-0.237500X-0.300000X0.237500X-0.300000X0.237500X0.300000X0*%
%ADD28RoundRect,0.375000X-0.375000X0.625000X-0.375000X-0.625000X0.375000X-0.625000X0.375000X0.625000X0*%
%ADD29RoundRect,0.500000X-1.400000X0.500000X-1.400000X-0.500000X1.400000X-0.500000X1.400000X0.500000X0*%
%ADD30RoundRect,0.100000X0.850000X0.100000X-0.850000X0.100000X-0.850000X-0.100000X0.850000X-0.100000X0*%
%ADD31RoundRect,0.250000X1.500000X0.650000X-1.500000X0.650000X-1.500000X-0.650000X1.500000X-0.650000X0*%
%ADD32RoundRect,0.155000X-0.155000X0.212500X-0.155000X-0.212500X0.155000X-0.212500X0.155000X0.212500X0*%
%ADD33RoundRect,0.237500X0.300000X0.237500X-0.300000X0.237500X-0.300000X-0.237500X0.300000X-0.237500X0*%
%ADD34C,2.134400*%
%ADD35RoundRect,0.250000X-0.450000X0.325000X-0.450000X-0.325000X0.450000X-0.325000X0.450000X0.325000X0*%
%ADD36RoundRect,0.250000X0.450000X-0.325000X0.450000X0.325000X-0.450000X0.325000X-0.450000X-0.325000X0*%
%ADD37RoundRect,0.155000X0.155000X-0.212500X0.155000X0.212500X-0.155000X0.212500X-0.155000X-0.212500X0*%
%ADD38RoundRect,0.250000X0.450000X-0.350000X0.450000X0.350000X-0.450000X0.350000X-0.450000X-0.350000X0*%
G04 APERTURE END LIST*
D10*
%TO.C,D5*%
X144025000Y-46000000D03*
X141975000Y-46000000D03*
%TD*%
D11*
%TO.C,SW3*%
X114500000Y-71000000D03*
X109801000Y-71000000D03*
X105102000Y-71000000D03*
%TD*%
D12*
%TO.C,S32*%
X140920000Y-41000000D03*
D13*
X143460000Y-41000000D03*
X146000000Y-41000000D03*
%TD*%
D12*
%TO.C,S25*%
X104920000Y-41000000D03*
D13*
X107460000Y-41000000D03*
X110000000Y-41000000D03*
%TD*%
D14*
%TO.C,SW2*%
X101500000Y-56500000D03*
X101500000Y-52029600D03*
%TD*%
D12*
%TO.C,Q34*%
X158920000Y-41000000D03*
D13*
X161460000Y-41000000D03*
X164000000Y-41000000D03*
%TD*%
D15*
%TO.C,C6*%
X101660000Y-59000000D03*
X102475000Y-59000000D03*
%TD*%
D16*
%TO.C,R9*%
X129475000Y-46000000D03*
X131475000Y-46000000D03*
%TD*%
%TO.C,R12*%
X114000000Y-45000000D03*
X116000000Y-45000000D03*
%TD*%
D17*
%TO.C,REF\u002A\u002A*%
X170500000Y-72000000D03*
%TD*%
D16*
%TO.C,R11*%
X138000000Y-46000000D03*
X140000000Y-46000000D03*
%TD*%
D12*
%TO.C,S33*%
X131920000Y-41000000D03*
D13*
X134460000Y-41000000D03*
X137000000Y-41000000D03*
%TD*%
D12*
%TO.C,SERVO4*%
X148960000Y-71500000D03*
D13*
X151500000Y-71500000D03*
X154040000Y-71500000D03*
%TD*%
D17*
%TO.C,REF\u002A\u002A*%
X100000000Y-72000000D03*
%TD*%
D18*
%TO.C,C1*%
X109675000Y-64000000D03*
X106325000Y-64000000D03*
%TD*%
D12*
%TO.C,SERVO16*%
X158920000Y-71500000D03*
D13*
X161460000Y-71500000D03*
X164000000Y-71500000D03*
%TD*%
D12*
%TO.C,J13*%
X121500000Y-71500000D03*
D13*
X118960000Y-71500000D03*
%TD*%
D19*
%TO.C,U3*%
X164602500Y-46905000D03*
X163332500Y-46905000D03*
X162062500Y-46905000D03*
X160792500Y-46905000D03*
X159522500Y-46905000D03*
X158252500Y-46905000D03*
X156982500Y-46905000D03*
X155712500Y-46905000D03*
X154442500Y-46905000D03*
X153172500Y-46905000D03*
X151902500Y-46905000D03*
X150632500Y-46905000D03*
X149362500Y-46905000D03*
X148092500Y-46905000D03*
D20*
X146842500Y-49945000D03*
X146842500Y-51215000D03*
X146842500Y-52485000D03*
X146842500Y-53755000D03*
X146842500Y-55025000D03*
X146842500Y-56295000D03*
X146842500Y-57565000D03*
X146842500Y-58835000D03*
X146842500Y-60105000D03*
X146842500Y-61375000D03*
D19*
X148092500Y-64405000D03*
X149362500Y-64405000D03*
X150632500Y-64405000D03*
X151902500Y-64405000D03*
X153172500Y-64405000D03*
X154442500Y-64405000D03*
X155712500Y-64405000D03*
X156982500Y-64405000D03*
X158252500Y-64405000D03*
X159522500Y-64405000D03*
X160792500Y-64405000D03*
X162062500Y-64405000D03*
X163332500Y-64405000D03*
X164602500Y-64405000D03*
D21*
X158025000Y-53450000D03*
X156500000Y-53450000D03*
X158787500Y-54212500D03*
X157262500Y-54212500D03*
X155737500Y-54212500D03*
X158025000Y-54975000D03*
D22*
X157262500Y-54975000D03*
D21*
X156500000Y-54975000D03*
X158787500Y-55737500D03*
X157262500Y-55737500D03*
X155737500Y-55737500D03*
X158025000Y-56500000D03*
X156500000Y-56500000D03*
%TD*%
D23*
%TO.C,D4*%
X121975000Y-47500000D03*
X124025000Y-47500000D03*
%TD*%
D16*
%TO.C,R8*%
X105000000Y-44000000D03*
X107000000Y-44000000D03*
%TD*%
D14*
%TO.C,SW1*%
X101500000Y-50000000D03*
X101500000Y-45529600D03*
%TD*%
D23*
%TO.C,D2*%
X104975000Y-46500000D03*
X107025000Y-46500000D03*
%TD*%
D24*
%TO.C,C11*%
X108500000Y-49975000D03*
X108500000Y-49160000D03*
%TD*%
D12*
%TO.C,J5*%
X125195000Y-71500000D03*
D13*
X127735000Y-71500000D03*
%TD*%
D12*
%TO.C,S26*%
X122920000Y-41000000D03*
D13*
X125460000Y-41000000D03*
X128000000Y-41000000D03*
%TD*%
D12*
%TO.C,UART_SOCKET1*%
X134000000Y-49650000D03*
D13*
X134000000Y-52190000D03*
X134000000Y-54730000D03*
X134000000Y-57270000D03*
X134000000Y-59810000D03*
X134000000Y-62350000D03*
%TD*%
D12*
%TO.C,Q35*%
X149920000Y-41000000D03*
D13*
X152460000Y-41000000D03*
X155000000Y-41000000D03*
%TD*%
D10*
%TO.C,D3*%
X135500000Y-46000000D03*
X133450000Y-46000000D03*
%TD*%
D17*
%TO.C,REF\u002A\u002A*%
X170500000Y-41500000D03*
%TD*%
D25*
%TO.C,R1*%
X106412500Y-52000000D03*
X104587500Y-52000000D03*
%TD*%
D26*
%TO.C,R7*%
X144500000Y-61500000D03*
X144500000Y-63500000D03*
%TD*%
D27*
%TO.C,C5*%
X129000000Y-59137500D03*
X129000000Y-60862500D03*
%TD*%
D28*
%TO.C,U1*%
X129300000Y-50350000D03*
X127000000Y-50350000D03*
D29*
X127000000Y-56650000D03*
D28*
X124700000Y-50350000D03*
%TD*%
D30*
%TO.C,U2*%
X120500000Y-62000000D03*
X120500000Y-61350000D03*
X120500000Y-60700000D03*
X120500000Y-60050000D03*
X120500000Y-59400000D03*
X120500000Y-58750000D03*
X120500000Y-58100000D03*
X120500000Y-57450000D03*
X120500000Y-56800000D03*
X120500000Y-56150000D03*
X120500000Y-55500000D03*
X120500000Y-54850000D03*
X113500000Y-54850000D03*
X113500000Y-55500000D03*
X113500000Y-56150000D03*
X113500000Y-56800000D03*
X113500000Y-57450000D03*
X113500000Y-58100000D03*
X113500000Y-58750000D03*
X113500000Y-59400000D03*
X113500000Y-60050000D03*
X113500000Y-60700000D03*
X113500000Y-61350000D03*
X113500000Y-62000000D03*
%TD*%
D28*
%TO.C,U5*%
X142300000Y-51700000D03*
X140000000Y-51700000D03*
D29*
X140000000Y-58000000D03*
D28*
X137700000Y-51700000D03*
%TD*%
D12*
%TO.C,S27*%
X113920000Y-41000000D03*
D13*
X116460000Y-41000000D03*
X119000000Y-41000000D03*
%TD*%
D17*
%TO.C,REF\u002A\u002A*%
X100000000Y-41500000D03*
%TD*%
D23*
%TO.C,D6*%
X113975000Y-47500000D03*
X116025000Y-47500000D03*
%TD*%
D16*
%TO.C,R10*%
X122000000Y-45000000D03*
X124000000Y-45000000D03*
%TD*%
D31*
%TO.C,D8*%
X119500000Y-52000000D03*
X114500000Y-52000000D03*
%TD*%
D18*
%TO.C,C2*%
X102500000Y-64000000D03*
X99150000Y-64000000D03*
%TD*%
D32*
%TO.C,C10*%
X108500000Y-51432500D03*
X108500000Y-52567500D03*
%TD*%
D33*
%TO.C,C3*%
X139000000Y-49500000D03*
X137275000Y-49500000D03*
%TD*%
D34*
%TO.C,IR13*%
X138960000Y-71508410D03*
X141500000Y-71508410D03*
X144040000Y-71508410D03*
%TD*%
D35*
%TO.C,D1*%
X142000000Y-61475000D03*
X142000000Y-63525000D03*
%TD*%
D36*
%TO.C,D7*%
X144500000Y-67525000D03*
X144500000Y-65475000D03*
%TD*%
D37*
%TO.C,C4*%
X141000000Y-49567500D03*
X141000000Y-48432500D03*
%TD*%
D38*
%TO.C,R13*%
X142000000Y-67500000D03*
X142000000Y-65500000D03*
%TD*%
D12*
%TO.C,J2*%
X134000000Y-71500000D03*
D13*
X131460000Y-71500000D03*
%TD*%
M02*
