M48
; DRILL file {KiCad 9.0.7} date 2026-02-18T23:20:48-0300
; FORMAT={-:-/ absolute / metric / decimal}
; #@! TF.CreationDate,2026-02-18T23:20:48-03:00
; #@! TF.GenerationSoftware,Kicad,Pcbnew,9.0.7
; #@! TF.FileFunction,Plated,1,2,PTH
FMAT,2
METRIC
; #@! TA.AperFunction,Plated,PTH,ComponentDrill
T1C0.200
; #@! TA.AperFunction,Plated,PTH,ViaDrill
T2C0.300
; #@! TA.AperFunction,Plated,PTH,ViaDrill
T3C0.500
; #@! TA.AperFunction,Plated,PTH,ComponentDrill
T4C1.000
; #@! TA.AperFunction,Plated,PTH,ComponentDrill
T5C1.549
%
G90
G05
T1
X155.737Y-54.212
X155.737Y-55.737
X156.5Y-53.45
X156.5Y-54.975
X156.5Y-56.5
X157.262Y-54.212
X157.262Y-55.737
X158.025Y-53.45
X158.025Y-54.975
X158.025Y-56.5
X158.787Y-54.212
X158.787Y-55.737
T2
X101.0Y-60.0
X105.0Y-56.0
X106.5Y-56.0
X108.5Y-46.5
X111.5Y-59.0
X112.5Y-44.5
X114.966Y-57.702
X114.988Y-59.914
X114.997Y-56.103
X115.0Y-61.5
X115.009Y-56.903
X115.098Y-60.706
X117.5Y-48.0
X120.5Y-45.0
X126.0Y-48.0
X130.5Y-44.1
X130.862Y-59.137
X134.0Y-67.6
X135.5Y-67.6
X136.0Y-44.5
X136.0Y-56.67
X137.0Y-67.6
X138.559Y-67.6
X140.0Y-44.1
X140.5Y-67.6
X141.0Y-69.5
X143.5Y-44.5
X150.0Y-49.5
X151.0Y-59.0
X151.5Y-49.5
X153.0Y-49.5
X154.0Y-45.0
X154.0Y-62.1
X154.5Y-66.0
X155.5Y-45.0
X156.5Y-50.5
X158.0Y-59.0
X158.0Y-63.0
X159.5Y-59.5
X161.5Y-62.0
X163.0Y-45.5
X163.0Y-59.5
T3
X117.5Y-62.0
X122.5Y-65.5
T4
X104.92Y-41.0
X107.46Y-41.0
X110.0Y-41.0
X113.92Y-41.0
X116.46Y-41.0
X118.96Y-71.5
X119.0Y-41.0
X121.5Y-71.5
X122.92Y-41.0
X125.195Y-71.5
X125.46Y-41.0
X127.735Y-71.5
X128.0Y-41.0
X131.46Y-71.5
X131.92Y-41.0
X134.0Y-49.65
X134.0Y-52.19
X134.0Y-54.73
X134.0Y-57.27
X134.0Y-59.81
X134.0Y-62.35
X134.0Y-71.5
X134.46Y-41.0
X137.0Y-41.0
X138.96Y-71.508
X140.92Y-41.0
X141.5Y-71.508
X143.46Y-41.0
X144.04Y-71.508
X146.0Y-41.0
X148.96Y-71.5
X149.92Y-41.0
X151.5Y-71.5
X152.46Y-41.0
X154.04Y-71.5
X155.0Y-41.0
X158.92Y-41.0
X158.92Y-71.5
X161.46Y-41.0
X161.46Y-71.5
X164.0Y-41.0
X164.0Y-71.5
T5
X105.102Y-71.0
X109.801Y-71.0
X114.5Y-71.0
M30
